<svg width="20" height="24" viewBox="0 0 20 24" fill="none" xmlns="http://www.w3.org/2000/svg">
<path d="M9.58594 23.2969C9.77344 23.2969 10.0664 23.2265 10.3594 23.0742C17.0273 19.582 19.1719 17.8359 19.1719 13.6289V4.79297C19.1719 3.58594 18.6562 3.19922 17.6719 2.78906C16.3008 2.22656 11.918 0.632813 10.5586 0.164063C10.2422 0.058594 9.91406 0 9.58594 0C9.25781 0 8.92969 0.070313 8.625 0.164063C7.25391 0.609375 2.87109 2.23828 1.5 2.78906C0.527344 3.1875 0 3.58594 0 4.79297V13.6289C0 17.8359 2.26172 19.3828 8.8125 23.0742C9.11719 23.2383 9.39844 23.2969 9.58594 23.2969Z" fill="#E6EDF3"/>
<path d="M8.27344 16.9336C7.875 16.9336 7.54688 16.7812 7.24219 16.3711L4.30078 12.7617C4.125 12.5273 4.01953 12.2578 4.01953 12C4.01953 11.4609 4.42969 11.0273 4.96875 11.0273C5.29688 11.0273 5.55469 11.1445 5.84766 11.5312L8.22656 14.6015L13.2305 6.5625C13.4531 6.19922 13.7578 6.02344 14.0742 6.02344C14.5781 6.02344 15.0586 6.375 15.0586 6.91406C15.0586 7.1836 14.918 7.45313 14.7656 7.6875L9.25781 16.3711C9.01172 16.7461 8.67188 16.9336 8.27344 16.9336Z" fill="#02060E"/>
</svg>
