<svg width="24" height="22" viewBox="0 0 24 22" fill="none" xmlns="http://www.w3.org/2000/svg">
<path d="M11.6367 21.961C11.8828 21.961 12.2344 21.7969 12.4922 21.6446C19.1016 17.4258 23.2852 12.5157 23.2852 7.52344C23.2852 3.375 20.4375 0.445312 16.7461 0.445312C14.4609 0.445312 12.7031 1.71094 11.6367 3.64453C10.5938 1.72266 8.82422 0.445312 6.52734 0.445312C2.84766 0.445312 0 3.375 0 7.52344C0 12.5157 4.18359 17.4258 10.793 21.6446C11.0391 21.7969 11.4023 21.961 11.6367 21.961Z" fill="#E6EDF3"/>
<path d="M7.71094 12.3985C7.71094 12.2696 7.76953 12.1641 7.86328 12.0469L12.7031 5.96485C13.0664 5.50781 13.6758 5.8125 13.4648 6.38672L11.8711 10.6641H14.8594C15.082 10.6641 15.2812 10.8399 15.2812 11.0508C15.2812 11.168 15.2227 11.2969 15.1172 11.4024L10.2891 17.4844C9.91406 17.9414 9.30469 17.625 9.51562 17.0625L11.1211 12.7735H8.12109C7.89844 12.7735 7.71094 12.6094 7.71094 12.3985Z" fill="#02060D"/>
</svg>
