<svg width="24" height="25" viewBox="0 0 24 25" fill="none" xmlns="http://www.w3.org/2000/svg">
<path d="M11.9531 24.2031C18.4922 24.2031 23.9062 18.7774 23.9062 12.25C23.9062 5.71098 18.4805 0.296921 11.9414 0.296921C5.41406 0.296921 0 5.71098 0 12.25C0 18.7774 5.42578 24.2031 11.9531 24.2031Z" fill="#E6EDF3"/>
<path d="M10.6523 15.8946C7.88672 15.8946 5.625 13.6211 5.625 10.8672C5.625 8.10161 7.88672 5.82817 10.6523 5.82817C13.418 5.82817 15.6797 8.08989 15.6797 10.8672C15.6797 11.8985 15.3516 12.8711 14.8125 13.6563L17.918 16.7852C18.1172 16.9961 18.2461 17.2539 18.2461 17.5235C18.2461 18.1328 17.8477 18.5664 17.2617 18.5664C16.9102 18.5664 16.6523 18.4492 16.4062 18.1914L13.3125 15.1094C12.5391 15.5899 11.625 15.8946 10.6523 15.8946ZM10.6523 14.2422C12.4922 14.2422 14.0156 12.7071 14.0156 10.8672C14.0156 9.00395 12.4922 7.48051 10.6523 7.48051C8.80078 7.48051 7.27734 9.01567 7.27734 10.8672C7.27734 12.7071 8.80078 14.2422 10.6523 14.2422Z" fill="#02070F"/>
</svg>
