<?xml version="1.0" standalone="no"?>
<!DOCTYPE svg PUBLIC "-//W3C//DTD SVG 20010904//EN"
 "http://www.w3.org/TR/2001/REC-SVG-20010904/DTD/svg10.dtd">
<svg version="1.0" xmlns="http://www.w3.org/2000/svg"
 width="589.000000pt" height="589.000000pt" viewBox="0 0 589.000000 589.000000"
 preserveAspectRatio="xMidYMid meet">
<metadata>
Created by potrace 1.14, written by Peter Selinger 2001-2017
</metadata>
<g transform="translate(0.000000,589.000000) scale(0.100000,-0.100000)"
fill="#000000" stroke="none">
<path d="M2304 4981 c-5 -3 -9 -13 -9 -21 0 -8 -8 -14 -17 -14 -10 1 -18 -2
-18 -8 0 -5 -5 -6 -11 -2 -8 4 -8 0 0 -15 14 -25 3 -28 -15 -3 -12 15 -12 15
-7 -7 4 -17 3 -22 -5 -17 -7 4 -12 2 -12 -4 0 -6 -4 -9 -9 -6 -5 3 -14 -1 -21
-9 -9 -10 -9 -15 -1 -15 6 0 11 5 11 11 0 5 5 7 10 4 18 -11 11 -21 -17 -23
-16 -1 -33 -10 -40 -20 -7 -9 -17 -22 -23 -29 -6 -7 -9 -18 -8 -25 2 -7 -5
-12 -14 -12 -10 1 -18 -2 -18 -8 0 -5 -5 -6 -11 -2 -8 5 -8 1 0 -14 9 -16 7
-21 -8 -25 -14 -3 -18 0 -15 17 4 20 4 20 -5 1 -5 -11 -10 -30 -10 -43 -1 -19
-5 -22 -21 -17 -20 6 -23 2 -23 -35 0 -9 -10 -17 -23 -18 -54 -5 -61 -7 -61
-19 0 -8 6 -9 19 -2 12 7 18 6 18 -1 0 -14 -41 -29 -60 -22 -9 3 -8 -1 4 -10
23 -18 14 -38 -14 -33 -11 2 -22 0 -25 -5 -3 -5 -13 -7 -23 -4 -14 5 -14 4 -2
-4 8 -6 18 -8 23 -5 5 3 7 0 5 -8 -3 -8 -11 -13 -17 -11 -7 1 -19 -5 -27 -13
-9 -8 -20 -12 -26 -9 -6 4 -8 -2 -3 -16 5 -15 4 -20 -4 -16 -11 7 -15 -5 -12
-31 1 -7 -3 -13 -9 -13 -6 0 -8 5 -5 10 3 6 1 10 -5 10 -6 0 -8 5 -4 12 4 7 3
8 -4 4 -6 -4 -9 -12 -6 -20 3 -7 -6 -18 -20 -24 -18 -8 -24 -16 -19 -28 4 -12
3 -15 -5 -10 -8 5 -12 -1 -12 -18 0 -29 -9 -33 -29 -13 -10 8 -12 9 -7 0 7
-13 -27 -37 -38 -26 -3 3 -6 1 -6 -5 0 -6 5 -14 10 -17 6 -3 10 -1 10 4 0 6 4
11 8 11 5 0 9 -6 9 -14 0 -8 -11 -13 -26 -12 -21 1 -26 -3 -25 -21 1 -13 -3
-23 -8 -23 -5 0 -8 6 -6 14 2 8 -1 14 -7 13 -5 -1 -10 -6 -10 -12 0 -17 -66
-74 -79 -69 -7 3 -13 -2 -13 -11 0 -9 6 -14 13 -11 8 3 16 2 18 -3 3 -4 -1 -8
-9 -9 -8 -1 -22 -3 -30 -4 -8 -1 -17 -8 -20 -17 -5 -13 -7 -13 -15 -1 -5 9 -8
-4 -8 -36 1 -50 19 -84 45 -84 8 0 11 -5 7 -12 -6 -10 -4 -10 7 0 17 16 26 15
26 -3 0 -8 -3 -12 -7 -10 -3 2 -12 -1 -20 -7 -12 -8 -12 -9 2 -4 10 3 20 1 23
-4 4 -6 15 -10 26 -10 11 0 19 -7 19 -17 0 -15 -2 -16 -10 -3 -7 11 -10 11
-10 2 0 -8 -5 -10 -12 -6 -8 4 -10 3 -5 -2 9 -9 13 -10 43 -13 9 -1 12 -6 8
-13 -5 -8 0 -7 11 2 11 9 16 10 11 3 -4 -7 -3 -13 2 -13 5 0 12 -9 15 -20 4
-14 10 -18 22 -14 14 6 16 3 10 -15 -4 -15 -3 -21 7 -19 7 2 12 -3 10 -11 -3
-12 0 -12 12 -2 17 14 25 4 28 -33 2 -19 5 -22 15 -15 16 14 34 3 26 -16 -3
-8 0 -15 5 -15 6 0 9 -8 7 -19 -2 -13 2 -18 18 -17 16 1 22 -5 23 -22 1 -12 5
-26 9 -30 5 -4 5 1 2 10 -3 10 -2 20 3 23 6 4 10 1 10 -5 0 -6 5 -8 13 -4 8 5
8 2 -2 -9 -12 -15 -10 -18 18 -23 17 -4 31 -11 31 -16 0 -5 -10 -7 -22 -4 -14
4 -10 -1 10 -11 25 -13 31 -21 27 -37 -5 -18 -4 -17 8 3 9 15 17 20 21 12 4
-6 1 -11 -6 -11 -10 -1 -9 -4 2 -13 8 -7 16 -19 18 -27 2 -8 8 -19 13 -25 7
-7 8 -4 4 8 -4 10 -2 17 4 17 6 0 11 -7 11 -15 0 -8 5 -16 10 -16 6 -1 15 -2
22 -3 7 0 14 -20 16 -43 3 -41 2 -43 -23 -43 -20 0 -26 -4 -22 -15 6 -14 -8
-30 -28 -30 -5 0 -11 -10 -13 -22 -3 -17 -10 -23 -29 -23 -18 0 -24 -4 -20
-15 6 -14 -8 -30 -28 -30 -5 0 -11 -11 -13 -24 -3 -18 -8 -22 -28 -18 -21 4
-23 1 -20 -19 3 -13 0 -24 -5 -25 -59 -5 -83 -1 -85 15 -6 40 -13 49 -29 36
-13 -10 -15 -9 -16 11 -1 13 -1 27 -1 30 1 3 -9 5 -21 5 -15 -1 -22 5 -21 17
2 17 -7 21 -35 18 -7 -2 -10 2 -7 8 4 5 2 12 -4 16 -6 4 -8 11 -5 16 4 5 -5 9
-19 9 -14 0 -25 3 -25 8 4 22 -2 42 -11 37 -5 -3 -10 0 -10 7 0 9 -3 9 -10 -2
-9 -13 -10 -13 -11 0 -1 8 -1 21 0 28 1 6 -7 12 -19 12 -13 0 -24 10 -30 26
-7 18 -15 24 -26 20 -12 -4 -15 -2 -10 9 3 8 1 15 -5 15 -6 0 -7 5 -4 10 4 6
-5 10 -19 10 -21 0 -26 5 -26 24 0 19 -4 24 -20 21 -18 -4 -22 2 -19 33 0 4
-10 9 -23 12 -14 4 -24 15 -26 27 -2 14 -8 20 -17 17 -14 -6 -39 29 -28 40 3
3 -9 6 -28 6 -19 0 -29 4 -22 8 7 4 9 13 4 20 -11 18 -83 11 -89 -8 -4 -12 -2
-13 10 -3 12 10 18 10 32 0 14 -10 12 -12 -16 -14 -18 -2 -42 -3 -53 -3 -16
-1 -17 -3 -5 -10 13 -8 12 -10 -3 -10 -9 0 -16 -3 -16 -7 4 -23 -3 -31 -21
-26 -15 4 -20 0 -20 -16 0 -11 -5 -21 -11 -21 -8 0 -8 -4 0 -14 9 -11 9 -16 0
-22 -7 -4 -9 -3 -6 3 4 6 0 16 -8 23 -13 11 -15 8 -15 -14 0 -19 -5 -26 -19
-26 -11 0 -23 -9 -26 -20 -3 -11 -12 -20 -19 -20 -8 0 -19 -7 -26 -15 -13 -15
-2 -21 16 -7 5 4 1 -1 -9 -10 -11 -10 -28 -18 -38 -18 -10 0 -19 -5 -19 -11 0
-5 6 -7 13 -3 6 4 4 -2 -6 -14 -11 -11 -25 -18 -32 -16 -7 3 -15 -5 -19 -20
-3 -14 -13 -26 -21 -26 -8 0 -17 -11 -21 -25 -3 -14 -10 -23 -14 -20 -12 7
-41 -6 -35 -16 3 -4 13 -5 23 -2 13 4 13 2 -3 -10 -11 -9 -30 -17 -42 -17 -18
0 -23 -6 -23 -25 0 -20 -5 -25 -24 -25 -17 0 -23 -5 -22 -17 0 -12 -7 -19 -21
-21 -13 -2 -23 -10 -23 -19 0 -13 3 -13 15 -3 9 7 18 11 20 8 3 -3 -6 -10 -19
-17 -13 -8 -29 -23 -35 -35 -7 -11 -9 -13 -7 -4 3 10 1 20 -3 23 -10 6 -23
-23 -16 -35 3 -5 -8 -11 -23 -15 -21 -4 -28 -12 -28 -28 1 -17 -4 -21 -21 -19
-17 2 -21 -1 -17 -12 6 -15 -28 -40 -40 -29 -3 3 -6 1 -6 -5 0 -15 17 -24 23
-12 3 6 4 5 3 -2 -2 -7 -7 -13 -12 -13 -5 0 -15 -4 -21 -8 -7 -5 -18 -5 -25
-1 -6 4 -8 3 -4 -4 3 -5 0 -13 -6 -15 -10 -4 -9 -8 2 -16 13 -9 12 -11 -5 -12
-11 -1 -26 -1 -33 0 -6 1 -12 -5 -12 -14 0 -10 5 -13 12 -9 7 4 8 3 4 -4 -4
-7 -14 -12 -22 -12 -11 0 -14 -7 -10 -22 3 -13 3 -17 0 -10 -3 6 -10 10 -15 7
-5 -4 -6 2 -2 12 3 10 2 15 -2 10 -5 -4 -9 -17 -10 -30 -1 -13 -8 -22 -18 -22
-8 0 -19 -4 -24 -8 -4 -5 -3 -8 2 -7 26 6 33 -2 30 -35 -1 -20 2 -38 6 -41 4
-2 6 -14 4 -25 -3 -16 1 -19 18 -17 17 2 22 -2 21 -19 0 -18 5 -23 23 -23 18
0 23 -5 23 -26 0 -21 4 -24 20 -19 11 4 21 2 21 -4 1 -6 2 -17 3 -23 0 -7 12
-14 24 -16 18 -3 23 -8 19 -23 -3 -10 -1 -20 4 -20 5 -1 14 -3 19 -4 6 -1 15
-3 20 -4 6 0 10 -10 10 -21 0 -13 7 -20 19 -20 13 0 21 -8 23 -22 2 -17 9 -23
26 -22 20 1 28 -15 24 -47 -1 -4 8 -5 18 -2 16 4 20 0 20 -21 0 -16 5 -26 13
-25 27 3 38 -2 35 -18 -2 -12 4 -19 20 -21 16 -3 22 -10 22 -29 0 -20 4 -24
19 -20 19 5 36 -16 26 -33 -2 -4 8 -10 24 -13 20 -4 28 -12 27 -24 0 -10 5
-18 12 -19 6 -1 17 -2 24 -3 6 0 8 -4 5 -7 -11 -12 13 -43 28 -38 14 6 19 -5
16 -34 -1 -7 2 -12 6 -11 30 5 43 -3 43 -27 0 -14 4 -23 9 -20 17 11 40 -5 36
-25 -3 -16 1 -19 18 -17 16 2 23 -3 25 -19 2 -13 10 -23 18 -23 9 0 22 -7 30
-15 9 -8 11 -15 5 -15 -6 0 -11 -4 -11 -10 0 -5 11 -10 25 -10 16 0 25 -6 25
-15 0 -8 5 -15 11 -15 5 0 7 -5 3 -11 -4 -8 0 -8 15 0 16 9 21 9 21 -1 0 -9 3
-9 10 2 7 11 10 11 10 2 0 -7 5 -10 10 -7 6 3 10 15 10 26 0 14 7 19 24 19 19
0 24 4 21 19 -4 23 25 38 37 19 5 -8 8 -1 8 20 0 17 3 31 8 31 29 -5 42 3 42
26 0 14 5 25 11 25 5 0 7 -6 3 -12 -5 -9 -2 -9 9 1 9 7 17 21 17 30 0 10 9 17
22 18 24 2 39 20 32 38 -3 6 2 12 10 12 8 0 12 -5 9 -11 -4 -8 -2 -8 6 0 7 6
13 21 14 33 1 15 8 21 24 21 18 0 23 6 23 24 0 19 4 24 19 21 20 -4 36 19 25
37 -4 5 3 8 16 6 16 -2 24 3 26 16 3 24 24 46 24 26 0 -9 4 -8 14 5 8 11 12
25 9 32 -3 9 4 13 21 13 19 0 26 5 26 18 0 27 11 34 28 19 13 -9 14 -9 8 1 -4
7 -2 12 4 12 6 0 8 5 5 10 -3 5 0 10 7 10 9 0 9 3 -2 10 -11 8 -2 10 33 8 38
-1 47 -5 47 -20 0 -10 5 -19 10 -19 6 -1 16 -2 23 -3 6 0 13 -7 13 -13 1 -7 2
-19 3 -27 1 -9 8 -12 21 -9 15 4 20 0 20 -15 0 -11 8 -26 17 -33 11 -10 14
-10 9 -1 -4 6 -2 12 3 12 10 0 15 -14 12 -33 -1 -4 12 -12 28 -18 17 -6 28
-17 27 -27 0 -9 5 -17 12 -18 6 -1 17 -2 22 -3 6 0 10 -10 10 -21 0 -11 -4
-20 -10 -20 -5 0 -10 -5 -10 -11 0 -5 4 -7 10 -4 6 3 7 -1 4 -9 -3 -9 -9 -14
-13 -12 -12 8 -32 -10 -34 -31 0 -12 -6 -19 -13 -16 -7 2 -15 0 -18 -6 -4 -5
-19 -8 -34 -5 -19 3 -23 2 -12 -5 8 -5 17 -8 21 -5 4 2 10 0 14 -6 3 -5 3 -10
-2 -11 -28 -2 -47 -9 -57 -20 -8 -9 -8 -10 1 -5 7 4 11 0 10 -12 0 -10 -7 -19
-14 -19 -6 0 -10 3 -8 7 2 3 0 12 -5 20 -7 12 -9 11 -10 -5 -1 -48 -5 -65 -15
-64 -36 4 -45 -2 -41 -26 4 -21 1 -25 -21 -25 -18 0 -24 -4 -19 -15 3 -10 -3
-17 -19 -21 -15 -4 -25 -13 -25 -24 0 -22 -16 -35 -24 -21 -4 5 -1 12 4 14 6
3 5 4 -2 2 -7 -1 -12 -8 -10 -14 1 -6 -3 -11 -9 -11 -6 0 -9 -9 -6 -19 3 -13
-1 -21 -15 -24 -16 -5 -17 -3 -7 9 10 12 9 13 -4 8 -8 -3 -18 -12 -21 -21 -4
-9 -13 -13 -22 -9 -9 3 -12 2 -9 -5 4 -6 14 -8 22 -5 9 4 13 1 11 -6 -2 -6
-14 -12 -27 -13 -12 -1 -35 -16 -52 -34 -16 -18 -33 -29 -39 -26 -5 3 -10 1
-10 -5 0 -6 8 -9 18 -6 13 4 19 1 19 -9 0 -8 -5 -15 -11 -14 -37 4 -47 -1 -37
-20 8 -15 7 -20 -5 -25 -9 -3 -19 -4 -24 -1 -4 2 -7 -7 -7 -20 0 -14 3 -28 8
-31 5 -3 9 -11 9 -17 0 -7 -4 -6 -10 3 -5 8 -10 11 -10 5 0 -5 4 -16 9 -24 7
-11 11 -10 21 5 10 16 11 16 6 2 -3 -10 -1 -18 4 -18 6 0 10 -9 10 -20 0 -15
7 -20 26 -20 21 0 24 -4 19 -20 -4 -11 -2 -21 4 -21 6 -1 16 -2 21 -3 15 -2
30 -28 23 -40 -4 -5 2 -7 13 -4 20 5 52 -18 34 -24 -6 -2 -6 -9 0 -18 8 -13
11 -13 19 -1 7 11 11 8 16 -10 5 -13 7 -26 6 -29 -1 -3 8 -8 21 -11 15 -3 23
-12 22 -26 0 -12 6 -20 15 -20 40 0 55 -4 46 -11 -18 -13 -15 -32 5 -32 11 0
20 -4 20 -10 0 -5 8 -7 18 -4 16 5 16 5 0 -9 -25 -20 -22 -30 3 -16 15 8 19 8
15 0 -4 -6 -1 -11 7 -11 10 0 13 -7 10 -20 -4 -15 0 -20 16 -20 11 0 21 -5 21
-11 0 -5 5 -7 11 -3 8 4 8 0 0 -15 -7 -12 -8 -21 -2 -21 5 0 12 6 14 13 4 9 6
9 6 -1 1 -7 6 -10 11 -7 5 3 10 -4 10 -15 0 -13 8 -24 20 -27 11 -3 20 -10 20
-15 0 -5 4 -7 9 -4 5 4 7 -3 4 -14 -3 -11 0 -20 6 -20 6 0 11 6 11 14 0 8 4
17 9 20 5 4 7 -2 4 -13 -5 -20 21 -36 39 -24 7 4 8 1 4 -6 -5 -7 -14 -10 -22
-7 -8 3 -14 -1 -14 -9 0 -7 10 -15 23 -17 15 -2 22 -10 21 -24 0 -13 7 -21 20
-22 12 0 22 -6 24 -11 2 -5 11 -7 20 -4 13 4 13 2 -3 -11 -18 -16 -18 -17 -2
-12 14 4 21 -2 29 -24 7 -23 13 -28 23 -20 15 13 25 3 25 -27 0 -18 6 -23 24
-23 26 0 40 -22 24 -38 -7 -7 31 -11 129 -11 115 0 140 3 140 14 0 11 -4 12
-13 4 -8 -7 -14 -6 -20 2 -4 7 -3 9 3 6 6 -4 13 0 17 8 3 8 17 15 31 15 14 0
24 3 24 8 -5 28 3 41 21 37 16 -3 20 2 20 21 0 19 5 24 25 24 14 0 25 5 25 11
0 5 -4 8 -9 4 -5 -3 -13 0 -17 6 -4 8 -3 9 5 5 6 -4 14 -1 17 8 4 9 15 13 32
10 l27 -4 -25 16 c-14 8 -17 13 -7 10 9 -3 17 -1 17 5 0 5 11 14 25 19 14 5
25 14 25 20 0 6 -6 8 -12 5 -7 -4 -2 3 12 14 14 11 30 21 35 21 6 0 3 -5 -5
-11 -13 -9 -13 -10 0 -6 8 2 14 14 14 26 -1 19 3 22 22 18 18 -3 24 0 24 14 0
11 -6 19 -12 20 -7 0 -3 4 10 9 12 5 29 7 37 4 10 -4 13 0 9 19 -3 21 0 26 18
29 13 2 25 12 28 24 3 13 12 20 23 18 15 -2 22 7 18 28 0 5 4 8 10 8 5 0 8 4
4 9 -3 6 7 6 26 1 17 -5 36 -8 43 -7 6 1 10 -8 10 -21 -1 -17 4 -22 22 -22 16
0 24 -7 26 -22 2 -15 10 -23 22 -23 11 0 20 -8 22 -19 3 -21 23 -38 36 -30 4
3 8 -7 8 -21 0 -15 5 -25 13 -24 27 3 37 -2 37 -21 0 -14 7 -20 24 -20 18 0
23 -5 22 -22 -1 -18 4 -22 22 -20 18 3 22 -2 22 -22 0 -21 5 -26 25 -26 14 0
24 -3 24 -7 -5 -29 3 -41 21 -36 16 4 20 0 20 -21 0 -21 5 -26 26 -26 21 0 24
-4 19 -20 -6 -19 2 -25 33 -21 7 1 12 -9 12 -24 l0 -25 119 0 c80 0 122 4 127
12 4 7 3 8 -4 4 -7 -4 -12 -1 -12 8 0 19 11 20 29 3 11 -10 13 -9 7 1 -4 7 -1
15 8 18 9 3 16 10 16 16 0 5 -4 6 -10 3 -6 -4 -7 1 -3 11 4 12 8 14 11 6 3 -9
10 -6 23 9 10 12 16 25 14 29 -3 4 2 11 10 14 13 4 13 2 5 -14 -7 -13 -7 -21
2 -26 7 -4 8 -3 4 4 -4 7 -2 12 5 12 7 0 10 3 6 6 -8 8 13 64 25 64 5 0 7 -4
4 -9 -4 -5 5 -4 18 2 14 7 21 14 18 17 -4 3 -8 14 -10 25 -2 18 -2 18 8 2 6
-9 16 -17 23 -17 8 0 7 3 -2 9 -11 7 -9 10 8 16 18 5 20 9 10 21 -10 12 -9 13
5 8 9 -3 16 -11 16 -17 0 -6 3 -7 6 -4 4 4 1 13 -6 22 -10 13 -9 15 9 15 18 0
21 4 16 20 -5 16 -2 20 19 20 14 0 28 5 32 12 4 6 3 8 -4 5 -6 -5 -8 0 -5 13
3 11 10 20 15 20 5 0 6 -5 2 -11 -3 -6 5 -3 19 6 15 9 32 13 38 9 8 -5 9 -3 5
5 -5 7 -14 10 -21 7 -9 -3 -13 2 -12 13 0 10 7 18 14 18 6 0 10 -4 7 -9 -8
-13 6 -9 22 6 16 17 19 30 4 21 -6 -3 -7 1 -4 10 4 9 13 14 21 11 7 -3 16 1
19 9 4 8 11 12 18 8 6 -4 5 1 -3 10 -12 15 -11 17 8 17 14 0 23 8 27 25 5 22
9 24 22 13 12 -10 14 -10 8 -1 -5 9 -1 13 12 13 11 0 26 8 33 18 11 14 11 15
-1 4 -18 -16 -27 -15 -27 3 0 8 4 12 9 9 4 -3 8 -1 8 4 0 5 6 9 13 10 24 2 47
8 53 15 4 3 -3 4 -15 2 -15 -3 -21 0 -18 8 3 7 10 11 16 9 7 -1 17 11 22 28 6
16 16 30 21 30 6 0 4 -8 -3 -17 -12 -14 -12 -16 0 -8 11 6 13 4 8 -9 -4 -11
-3 -15 4 -11 6 4 8 13 5 21 -3 7 -1 16 5 20 6 3 8 12 5 20 -3 8 1 14 9 14 7 0
21 7 29 16 9 8 21 12 27 8 8 -4 9 -3 5 4 -4 7 -2 12 4 12 6 0 9 3 7 8 -3 4 1
13 9 20 10 10 14 10 14 1 0 -7 3 -9 7 -5 5 4 -1 15 -12 23 -13 10 -14 14 -4
10 35 -12 45 16 40 116 -1 22 -6 27 -25 27 -14 0 -28 5 -31 10 -3 6 -1 10 6
10 9 0 9 3 -1 14 -6 8 -18 12 -26 9 -10 -4 -14 3 -14 23 0 15 -3 24 -6 21 -10
-9 -46 12 -39 24 4 5 1 9 -5 9 -6 0 -8 5 -4 11 4 7 -2 9 -17 7 -20 -2 -23 1
-21 20 3 18 -1 22 -24 22 -21 0 -25 4 -21 20 5 19 -3 24 -30 21 -8 -1 -13 9
-13 24 0 18 -5 25 -19 25 -10 0 -24 7 -31 15 -10 12 -10 15 1 15 11 0 11 2 -1
9 -8 6 -17 8 -22 5 -9 -6 -29 31 -21 40 6 5 -20 10 -39 7 -5 0 -8 10 -8 24 0
19 -5 25 -17 23 -11 -2 -19 6 -24 22 -4 14 -7 21 -8 17 -1 -4 -10 -3 -21 3
-11 6 -19 19 -18 28 2 9 -4 18 -12 18 -8 1 -20 2 -25 3 -17 2 -12 80 5 91 8 5
18 6 23 3 4 -3 8 1 6 8 -3 29 2 37 24 35 18 -2 23 2 23 17 -1 14 8 23 24 28
14 4 19 7 12 8 -10 1 -10 5 2 17 9 8 16 21 16 27 0 8 3 8 8 2 13 -18 35 -17
28 0 -3 9 -6 19 -6 21 0 3 -6 2 -12 -2 -7 -4 -9 -3 -5 1 4 5 20 11 35 13 28 3
56 22 33 22 -7 0 -9 5 -6 10 3 6 17 10 31 10 22 0 29 -10 25 -34 -1 -5 5 -6
12 -3 18 7 37 -11 37 -35 0 -10 3 -17 8 -17 28 5 40 -3 35 -21 -3 -12 0 -20 6
-20 7 0 9 5 6 11 -4 6 1 5 12 -2 13 -7 19 -21 17 -35 -1 -14 2 -21 7 -18 6 3
20 -1 33 -9 18 -12 26 -13 37 -4 11 10 11 9 0 -5 -7 -10 -17 -15 -22 -12 -5 3
-9 0 -9 -5 0 -6 11 -11 23 -11 30 0 40 -10 27 -25 -8 -9 -6 -14 5 -19 11 -4
14 -2 9 7 -5 8 -2 7 9 -2 9 -7 17 -22 17 -32 0 -24 16 -24 30 -1 9 14 10 13 4
-7 -4 -17 -3 -21 6 -16 8 5 11 0 8 -16 -2 -16 2 -24 12 -25 8 -1 20 -2 27 -3
7 0 10 -8 7 -16 -4 -10 3 -18 21 -25 14 -5 23 -14 20 -20 -3 -5 2 -10 12 -10
15 0 16 -2 3 -10 -8 -5 -10 -10 -4 -10 5 0 15 5 20 10 7 7 11 6 12 -5 1 -8 3
-22 4 -30 1 -9 7 -14 13 -11 16 6 35 -13 35 -35 0 -12 6 -17 20 -14 13 2 20
-2 20 -11 0 -16 16 -19 25 -4 3 5 12 10 18 10 7 0 -1 -9 -18 -20 -30 -20 -30
-20 -5 -19 14 0 35 -2 48 -4 12 -3 22 -1 22 4 0 6 6 7 13 3 8 -6 8 -3 -1 9
-12 14 -10 17 15 22 15 4 37 11 48 16 19 9 19 9 -2 4 -16 -5 -21 -2 -19 12 2
10 9 18 17 19 33 2 39 5 39 15 0 5 -4 7 -10 4 -6 -3 -7 1 -4 9 4 11 11 13 23
6 13 -6 18 -5 19 6 1 7 3 20 4 28 1 8 15 17 32 20 23 5 27 9 17 15 -17 11 -4
34 15 27 14 -6 38 27 27 38 -3 3 -1 7 5 7 26 3 31 4 37 11 4 4 14 4 23 1 10
-4 13 -2 8 5 -3 6 -2 13 4 17 5 3 10 17 10 31 0 15 6 24 15 24 8 0 15 -4 15
-10 0 -5 -4 -10 -10 -10 -5 0 -10 -5 -10 -11 0 -8 5 -7 15 1 9 7 14 19 11 27
-5 11 12 18 36 14 4 0 4 7 1 16 -4 11 -8 13 -11 5 -5 -16 -19 -15 -19 2 0 14
14 16 33 4 6 -4 11 -2 12 5 2 28 8 42 17 44 6 1 9 -5 7 -13 -2 -8 2 -14 8 -14
6 0 9 4 6 9 -3 4 1 17 9 27 17 23 19 38 3 28 -7 -5 -8 -3 -3 5 4 7 16 11 26 8
11 -3 19 -1 19 5 0 6 7 8 15 5 8 -4 17 -2 20 4 4 5 3 9 -2 8 -32 -6 -46 14
-17 25 8 3 12 2 9 -4 -3 -6 -1 -10 4 -10 11 0 13 6 15 40 1 8 8 16 16 16 8 1
20 2 27 3 7 0 10 8 6 17 -4 10 1 17 16 21 11 3 21 10 21 15 0 5 10 6 23 2 22
-7 22 -6 -2 13 -19 15 -20 20 -8 20 10 0 17 -4 17 -9 0 -17 16 -7 18 12 4 47
5 51 15 41 7 -7 6 -15 -3 -26 -11 -13 -10 -14 4 -9 9 3 16 15 16 25 0 10 7 19
15 19 8 0 15 8 15 18 0 15 -2 15 -11 2 -7 -10 -9 -11 -7 -2 2 8 6 12 8 11 9
-5 51 22 46 29 -9 15 9 31 24 22 10 -7 11 -10 3 -10 -7 0 -13 -5 -13 -11 0 -8
5 -8 15 1 8 7 13 16 10 20 -3 5 0 12 6 15 5 4 8 14 5 22 -5 12 -1 14 14 10 19
-5 24 3 23 39 0 5 9 10 20 10 17 -1 21 6 22 47 2 43 0 47 -22 47 -15 0 -23 6
-23 18 0 9 -5 24 -10 32 -8 12 -12 13 -19 2 -7 -11 -9 -11 -14 2 -4 9 -1 16 6
16 7 1 1 7 -13 14 -14 8 -28 12 -32 10 -5 -3 -8 7 -8 22 0 21 -4 25 -20 21
-18 -5 -26 7 -21 36 0 4 -10 7 -24 7 -15 0 -25 5 -24 13 3 25 -1 38 -11 32 -5
-3 -10 -2 -10 4 0 6 -6 8 -13 5 -8 -3 -14 2 -14 10 0 8 5 13 11 10 6 -3 3 1
-6 9 -10 8 -16 17 -13 21 3 3 -1 2 -7 -4 -20 -16 -28 -12 -28 16 0 21 -4 25
-20 21 -16 -4 -20 0 -20 18 0 17 -6 25 -22 27 -15 2 -24 11 -26 26 -3 16 -10
22 -28 22 -21 0 -23 3 -15 18 7 14 6 19 -5 20 -7 1 -21 3 -29 4 -9 1 -15 11
-15 25 0 18 -5 23 -26 23 -21 0 -25 4 -21 20 5 18 -4 25 -26 21 -4 -1 -12 12
-18 28 -8 23 -15 28 -32 24 -18 -4 -19 -3 -7 6 11 8 12 11 2 11 -7 0 -11 4 -8
9 3 5 -2 15 -11 22 -14 12 -16 12 -9 0 6 -9 4 -12 -5 -9 -8 3 -15 14 -17 26
-2 15 -10 22 -26 22 -18 0 -23 5 -22 23 1 17 -4 21 -21 19 -18 -2 -21 1 -18
18 3 16 -2 22 -24 26 -21 4 -28 11 -27 27 1 16 -5 22 -19 22 -13 0 -21 8 -23
23 -3 16 -10 22 -28 22 -17 0 -24 6 -24 18 0 15 -8 19 -36 19 -34 0 -35 -1
-13 -13 13 -7 28 -10 34 -7 5 4 7 3 3 -2 -5 -5 -22 -10 -40 -12 -32 -3 -51
-20 -42 -35 3 -4 -2 -8 -11 -8 -9 0 -14 4 -10 9 3 5 1 13 -5 16 -6 4 -10 3 -9
-2 5 -24 -15 -73 -30 -72 -10 0 -11 2 -3 6 6 2 12 12 11 21 0 11 -2 12 -6 4
-2 -6 -8 -10 -12 -8 -8 5 -10 -3 -14 -47 -1 -16 -9 -24 -24 -25 -45 -3 -52 -5
-47 -14 3 -4 0 -8 -6 -8 -6 0 -9 -4 -6 -8 2 -4 1 -14 -4 -22 -7 -12 -11 -12
-27 0 -10 8 -15 10 -11 6 4 -5 2 -16 -5 -25 -11 -14 -10 -14 6 -2 12 9 17 10
17 2 0 -7 5 -9 12 -5 7 4 8 3 4 -5 -4 -6 -11 -9 -16 -6 -12 7 -42 -24 -34 -36
3 -5 2 -9 -3 -8 -29 5 -43 -3 -40 -23 1 -18 -3 -23 -20 -22 -22 1 -27 -6 -24
-33 1 -7 -3 -13 -9 -13 -5 0 -10 5 -10 12 0 6 -9 2 -21 -10 -11 -12 -24 -20
-28 -18 -4 3 -8 -2 -8 -10 0 -10 4 -11 11 -4 13 13 26 13 26 -1 0 -5 -4 -8 -9
-5 -5 4 -11 2 -13 -3 -1 -6 -16 -12 -32 -14 -17 -2 -32 -10 -34 -18 -2 -8 0
-10 5 -4 11 14 33 17 33 5 0 -6 -7 -13 -15 -15 -8 -3 -23 -8 -32 -12 -10 -3
-22 -5 -26 -4 -5 1 -6 -3 -3 -8 4 -5 -1 -16 -9 -24 -8 -9 -12 -22 -9 -31 4
-10 0 -15 -13 -15 -10 0 -25 -1 -33 -2 -39 -6 -82 2 -78 14 3 6 -1 26 -9 42
-10 21 -13 23 -9 8 2 -13 0 -23 -5 -23 -5 0 -9 5 -9 11 0 5 -5 7 -11 3 -8 -4
-8 0 0 15 9 17 9 21 -1 19 -8 -2 -13 6 -12 18 1 11 -5 21 -12 21 -10 0 -11 -4
-4 -12 8 -9 6 -14 -5 -19 -9 -3 -14 -2 -12 2 9 14 -28 75 -46 78 -36 5 -44 13
-50 46 -8 50 2 88 23 88 10 0 24 8 31 17 12 14 12 16 0 9 -9 -6 -12 -4 -9 5 3
8 10 15 16 15 7 1 17 2 22 3 6 0 10 10 10 21 0 18 22 27 54 21 5 -1 3 5 -4 14
-12 14 -11 18 1 26 8 5 20 9 27 9 6 0 12 9 12 20 0 11 5 21 10 21 6 1 16 2 23
3 6 0 12 10 12 21 0 13 7 20 20 20 13 0 21 8 23 23 2 15 8 22 18 18 16 -6 38
29 28 45 -3 6 0 10 7 8 33 -4 48 2 43 16 -4 10 3 18 20 25 17 6 26 16 24 27
-2 13 3 18 20 17 14 0 22 5 22 16 0 26 24 42 40 27 9 -8 11 -9 6 0 -3 6 -2 15
4 18 8 5 7 11 -1 21 -9 11 -7 14 15 14 21 0 26 5 26 26 0 21 4 25 19 21 15 -3
18 -1 14 11 -5 11 -3 13 8 7 12 -8 12 -6 0 8 -7 9 -20 17 -27 17 -8 0 -13 3
-13 8 4 23 -3 43 -13 41 -27 -3 -37 2 -32 16 4 10 -3 18 -20 25 -17 6 -26 17
-26 30 0 12 -4 18 -10 15 -5 -3 -10 -2 -10 4 0 6 -6 8 -14 5 -11 -4 -13 0 -9
15 4 17 1 21 -16 21 -15 0 -25 9 -32 29 -8 23 -15 28 -32 23 -18 -4 -20 -3
-11 9 15 17 -3 37 -29 33 -12 -1 -17 5 -17 22 0 19 -5 24 -26 24 -21 0 -24 4
-19 20 5 14 2 20 -10 20 -10 0 -13 5 -9 13 5 8 2 8 -9 -2 -15 -12 -17 -11 -17
6 0 24 -18 43 -35 37 -8 -3 -12 3 -11 18 1 18 -4 23 -21 21 -18 -2 -23 2 -23
21 0 18 -6 25 -22 28 -13 2 -23 10 -23 18 0 18 -21 33 -35 25 -8 -5 -15 20
-12 46 1 3 -10 4 -23 1 -20 -3 -24 -1 -20 17 4 19 -9 27 -37 22 -5 0 -8 10 -8
24 0 20 -5 25 -26 25 -19 0 -25 4 -21 14 6 16 -16 40 -26 30 -4 -4 -11 5 -16
20 -7 16 -18 26 -31 26 -21 0 -29 20 -7 20 6 1 -5 10 -25 21 -25 13 -35 24
-32 34 4 10 0 15 -15 15 -14 0 -25 9 -31 24 -8 23 -13 24 -66 21 -32 -3 -62
-10 -68 -16 -8 -8 -4 -9 14 -4 24 6 24 6 -4 -13 -16 -11 -34 -18 -40 -16 -7 3
-12 -5 -13 -17 -3 -30 -21 -48 -32 -30 -6 8 -11 9 -15 3 -4 -6 1 -15 10 -20
16 -9 15 -10 -4 -16 -14 -5 -19 -13 -16 -24 5 -15 4 -15 -6 1 -13 21 -30 14
-30 -14 0 -13 -7 -19 -24 -19 -19 0 -23 -4 -19 -20 5 -19 -4 -25 -34 -21 -8 1
-13 -9 -13 -24 0 -15 -5 -25 -12 -24 -28 3 -37 -2 -33 -21 3 -15 -2 -20 -16
-20 -12 0 -23 -10 -29 -25 -6 -16 -17 -25 -30 -25 -12 0 -18 -4 -15 -10 9 -15
-14 -40 -31 -33 -10 4 -14 -3 -14 -22 0 -23 -4 -26 -20 -22 -17 4 -22 0 -27
-23 -4 -21 -10 -27 -24 -25 -14 3 -19 -2 -19 -21 0 -19 -5 -24 -27 -25 -16 -1
-34 -1 -40 0 -16 2 -17 -15 -1 -25 7 -4 8 -3 4 4 -5 8 -2 10 8 6 21 -8 11 -23
-14 -21 -12 1 -20 8 -20 19 0 9 -4 19 -10 23 -5 3 -6 13 -3 22 4 11 3 14 -5 9
-7 -4 -12 -14 -12 -22 0 -8 -5 -12 -10 -9 -7 4 -6 13 1 27 8 15 8 19 0 14 -6
-4 -11 -2 -11 4 0 7 -8 9 -20 5 -12 -4 -20 -2 -20 5 0 6 5 8 10 5 6 -3 10 -1
10 5 0 6 5 8 12 4 7 -4 8 -3 4 4 -4 6 -13 9 -21 5 -8 -3 -15 0 -15 7 0 7 -6
10 -14 7 -8 -3 -20 1 -26 9 -12 14 -3 20 23 15 5 -1 6 3 2 9 -3 6 -10 8 -15 5
-5 -3 -11 -1 -15 5 -4 6 -11 8 -16 5 -5 -4 -9 0 -9 7 0 9 -3 9 -10 -2 -5 -8
-10 -10 -10 -5 0 6 6 17 13 24 6 7 8 12 2 11 -20 -4 -35 0 -35 11 0 5 4 8 8 5
5 -3 9 1 9 9 0 10 -4 12 -12 5 -8 -7 -19 -4 -34 9 -13 11 -28 22 -34 24 -7 2
-8 8 -4 13 4 5 12 2 16 -5 6 -9 11 -10 15 -2 4 6 2 11 -4 11 -6 0 -22 12 -36
27 -23 25 -38 32 -71 35 -7 1 -13 8 -13 16 0 11 3 12 14 3 10 -8 16 -9 21 -1
4 6 3 10 -2 9 -17 -4 -43 14 -43 30 0 14 -2 14 -10 1 -8 -13 -11 -13 -22 -1
-7 8 -8 11 -3 9 6 -3 16 1 24 9 12 13 11 14 -8 8 -11 -3 -21 -2 -21 3 0 5 -8
9 -17 8 -12 0 -19 7 -21 22 -2 12 -8 22 -13 22 -6 0 -7 6 -4 13 4 6 0 4 -8 -6
-14 -17 -15 -16 -20 3 -3 11 -1 18 3 15 5 -3 12 -1 15 5 4 6 3 10 -2 9 -28 -5
-51 4 -60 23 -7 17 -19 22 -50 24 -23 1 -45 -1 -49 -5z m1199 -76 c-3 -9 -8
-14 -10 -11 -3 3 -2 9 2 15 9 16 15 13 8 -4z m-1121 -67 c-14 -14 -16 -42 -3
-33 5 3 13 0 16 -6 4 -5 13 -8 21 -5 8 3 14 3 14 0 0 -2 -10 -9 -22 -13 -23
-9 -23 -9 4 -16 17 -4 28 -15 30 -28 2 -11 9 -22 16 -25 11 -3 12 0 3 16 -20
37 -12 38 11 2 12 -19 21 -41 20 -47 -2 -8 8 -13 22 -13 18 0 24 -4 20 -14 -5
-14 12 -31 31 -31 6 0 11 -10 13 -23 3 -16 8 -22 18 -18 10 4 18 -4 25 -24 9
-25 14 -28 30 -19 11 5 19 6 18 2 -4 -23 2 -54 9 -49 12 7 52 -22 52 -37 0 -7
-4 -6 -11 3 -9 13 -10 13 -6 0 2 -8 10 -15 18 -15 8 0 20 -4 27 -8 6 -5 18 -5
25 -2 6 4 4 0 -5 -8 -25 -20 -23 -23 15 -32 17 -4 26 -9 20 -12 -22 -8 -14
-21 18 -32 19 -7 28 -15 23 -22 -4 -7 -7 -24 -8 -38 -1 -20 -6 -26 -23 -25
-23 1 -27 -6 -24 -37 1 -10 -6 -15 -21 -15 -17 1 -23 -4 -22 -20 1 -17 -5 -21
-28 -22 -15 0 -26 3 -23 7 2 5 -7 13 -21 20 -14 6 -23 14 -20 19 2 4 -2 16
-10 27 -8 10 -14 14 -14 9 0 -6 5 -15 11 -21 9 -9 7 -12 -8 -11 -12 1 -19 9
-19 22 1 16 -5 21 -21 20 -25 -2 -28 3 -13 26 6 10 10 11 10 3 0 -7 5 -13 12
-13 9 0 9 3 0 12 -10 10 -20 13 -69 20 -6 1 -9 7 -6 15 4 10 9 11 18 3 10 -8
15 -8 21 1 4 7 3 9 -4 5 -6 -3 -13 -2 -17 4 -4 6 -11 8 -16 5 -5 -4 -9 -1 -9
6 0 6 -8 9 -18 7 -13 -4 -18 1 -19 15 -2 24 -21 37 -41 29 -10 -3 -13 0 -10 9
3 8 12 13 21 13 9 -1 14 2 11 8 -3 5 -11 7 -17 5 -7 -2 -20 2 -29 11 -13 10
-18 11 -18 3 0 -7 -5 -9 -11 -5 -8 4 -7 9 2 15 12 8 11 11 -1 19 -16 10 -87
11 -105 1 -5 -3 -14 -6 -20 -6 -5 0 -13 -18 -16 -40 -3 -22 -7 -33 -8 -25 -1
13 -2 13 -11 0 -6 -10 -10 -11 -10 -2 0 6 -4 12 -10 12 -5 0 -7 -7 -4 -15 4
-8 1 -16 -5 -16 -6 -1 -17 -2 -23 -3 -7 0 -14 -7 -14 -13 -1 -7 -2 -18 -3 -24
0 -5 -6 -7 -11 -4 -6 4 -20 -14 -31 -39 -11 -27 -25 -44 -31 -40 -7 4 -6 9 3
15 7 4 10 11 6 15 -9 9 -18 1 -22 -23 -1 -10 -8 -17 -14 -15 -9 2 -9 -3 -2
-17 8 -14 7 -20 -4 -24 -10 -4 -12 -1 -8 11 5 16 4 16 -11 1 -9 -9 -18 -25
-18 -35 -1 -12 -10 -21 -22 -22 -38 -4 -55 -8 -62 -15 -4 -3 5 -4 20 -1 14 2
26 0 26 -6 0 -5 -5 -10 -11 -10 -5 0 -7 -6 -3 -12 6 -10 5 -10 -8 0 -12 10
-18 9 -28 -3 -7 -8 -16 -12 -21 -9 -5 3 -9 4 -10 2 -11 -70 -10 -86 7 -85 12
1 20 -7 24 -23 3 -18 11 -25 26 -24 12 1 21 -4 21 -10 -1 -36 4 -56 14 -56 5
0 7 5 4 10 -3 6 1 10 9 10 17 0 17 -20 1 -32 -5 -4 0 -8 13 -9 43 -3 47 -5 44
-21 -3 -18 31 -42 43 -30 4 4 2 -3 -4 -16 -7 -12 -8 -21 -4 -20 11 4 65 -52
68 -71 2 -9 4 -17 4 -19 1 -2 6 0 11 3 8 5 7 11 -1 21 -9 11 -8 14 5 14 10 0
16 -9 16 -25 0 -21 4 -25 23 -21 23 4 24 3 30 -59 1 -14 9 -20 24 -19 12 1 24
-5 27 -13 3 -8 1 -11 -4 -8 -6 3 -10 2 -10 -4 0 -5 10 -11 23 -13 16 -2 23
-11 25 -30 3 -22 9 -28 27 -28 12 0 25 -7 29 -15 3 -8 0 -15 -7 -15 -8 0 -7
-4 3 -10 9 -6 20 -5 29 3 11 9 13 9 8 0 -4 -6 -3 -14 2 -18 6 -3 7 -13 4 -22
-5 -13 -2 -15 16 -10 17 4 24 0 30 -16 5 -12 7 -25 4 -30 -2 -4 -1 -7 4 -6 28
5 41 -2 36 -21 -4 -15 0 -20 13 -20 11 0 26 -5 34 -10 13 -9 13 -11 0 -20 -10
-7 -11 -10 -2 -11 12 -2 26 -5 40 -9 4 -1 11 -2 15 -1 4 1 3 -8 -3 -19 -9 -18
-8 -20 16 -20 20 0 25 -4 20 -16 -5 -12 -1 -14 17 -9 22 7 22 7 2 -9 -20 -15
-20 -15 3 -11 20 4 28 -8 23 -37 0 -5 10 -8 24 -8 23 0 31 -13 26 -42 -2 -15
18 -8 29 10 10 15 10 15 8 -3 -2 -16 2 -20 22 -18 l25 3 -25 -15 c-24 -14 -23
-16 10 -19 9 0 16 -14 18 -35 3 -25 0 -31 -10 -25 -10 6 -10 4 1 -9 16 -20 12
-27 -18 -30 -20 -1 -25 -9 -22 -34 1 -8 -9 -13 -23 -13 -19 0 -24 -4 -21 -19
2 -11 -3 -22 -11 -25 -8 -3 -14 -1 -14 5 0 6 -4 7 -10 4 -6 -3 -10 4 -10 17
l-1 23 -15 -25 c-14 -23 -14 -23 -9 -2 6 22 -1 26 -42 25 -7 -1 -10 4 -7 9 3
5 12 7 18 5 7 -3 13 1 13 9 0 7 -4 11 -9 8 -4 -3 -8 0 -8 7 0 8 -4 8 -15 -1
-12 -10 -15 -9 -16 6 -1 11 -1 25 0 33 2 7 -2 10 -8 6 -11 -6 -43 7 -42 18 3
21 -3 26 -40 41 -22 9 -38 20 -35 25 3 5 -1 14 -9 21 -8 7 -15 19 -15 26 0 8
-6 11 -15 8 -11 -5 -15 1 -15 20 0 21 -5 26 -26 26 -18 0 -25 5 -23 18 3 30
-1 35 -16 22 -15 -13 -14 -14 -30 35 -2 8 -13 15 -24 15 -13 0 -21 8 -23 23
-2 12 -9 22 -16 22 -15 0 -33 26 -26 37 3 4 -6 8 -20 8 -21 0 -26 5 -26 23 0
14 -6 24 -15 24 -12 0 -12 -3 -2 -16 11 -14 10 -14 -5 -2 -10 7 -18 24 -18 36
0 17 -7 24 -32 29 -26 5 -30 9 -18 16 13 9 7 14 -12 11 -5 0 -8 3 -8 8 0 5 -9
11 -20 14 -11 3 -20 11 -20 19 0 10 3 9 10 -2 8 -13 10 -12 10 4 0 11 -5 16
-14 13 -8 -3 -22 1 -33 8 -10 8 -13 15 -6 15 7 0 10 6 7 14 -3 8 -12 12 -20 9
-8 -3 -11 -10 -7 -16 3 -6 1 -7 -6 -3 -6 4 -9 11 -6 16 3 5 1 11 -4 15 -6 3
-8 12 -4 21 3 8 2 14 -3 12 -5 -1 -19 2 -32 6 -17 6 -21 13 -17 27 5 14 3 17
-9 13 -11 -4 -19 2 -25 19 -11 29 -31 45 -31 25 -1 -8 -6 -6 -15 5 -7 11 -11
25 -8 33 3 9 -2 14 -13 14 -16 0 -17 -2 -4 -10 8 -5 10 -10 5 -10 -6 0 -18 9
-28 20 -9 11 -12 20 -6 20 5 0 7 5 4 10 -4 6 -11 8 -16 5 -5 -4 -9 -1 -9 4 0
6 -5 10 -12 8 -7 -1 -12 7 -13 18 0 13 -8 21 -23 23 -18 3 -23 8 -19 23 4 15
0 19 -19 19 -19 0 -24 5 -24 24 0 18 -7 25 -31 30 -26 5 -29 9 -20 20 10 12 8
14 -11 12 -20 -2 -24 2 -26 26 -1 15 3 28 8 28 6 0 8 6 4 13 -6 8 -3 8 9 -1
14 -12 17 -11 23 12 3 14 9 25 13 24 21 -2 31 4 31 22 0 18 16 26 43 21 4 -1
3 8 -4 20 -8 15 -8 19 0 15 6 -4 11 -1 11 7 0 10 8 13 24 10 21 -4 23 -2 19
21 -4 21 -2 25 11 20 9 -3 16 -1 16 6 0 6 5 8 12 4 6 -4 8 -3 4 4 -8 13 22 44
35 37 5 -4 9 6 9 20 0 21 4 25 19 20 23 -7 32 5 33 46 1 24 3 27 10 15 11 -20
32 -21 24 -1 -3 9 1 18 9 21 8 4 12 11 8 18 -4 6 0 6 9 -2 11 -9 18 -10 23 -2
3 5 1 10 -5 10 -6 0 -4 7 5 16 9 9 14 22 12 29 -3 6 1 12 9 12 7 0 11 -4 8 -9
-3 -4 -2 -14 3 -20 5 -9 9 -3 13 17 4 21 11 30 24 30 11 0 21 7 23 15 4 13 3
13 -6 0 -7 -9 -11 -10 -11 -3 0 6 8 18 19 25 10 7 17 21 15 31 -1 11 1 16 4
12 4 -4 8 -11 8 -16 3 -22 6 -22 13 1 4 15 14 24 23 22 9 -1 18 5 22 13 4 11
2 14 -7 9 -8 -5 -7 -2 2 9 7 9 22 17 32 17 11 0 18 3 18 8 -5 28 3 41 21 37
16 -3 22 2 26 24 5 23 10 28 27 23 11 -3 18 -1 14 4 -9 15 6 33 31 37 12 2 29
13 38 25 8 12 18 22 22 22 3 0 1 -5 -6 -12z m1211 -1 c-4 -6 0 -8 10 -4 9 3
16 3 16 -1 -4 -22 3 -33 16 -28 16 6 35 -21 28 -40 -2 -7 6 -10 22 -6 23 4 25
2 21 -22 -3 -19 -1 -26 7 -23 19 7 47 -12 41 -28 -4 -9 0 -15 7 -16 8 -1 19
-2 24 -4 6 -1 14 -3 18 -3 4 -1 3 -12 -4 -23 -10 -20 -9 -21 10 -16 21 5 48
-23 34 -37 -5 -5 19 -10 39 -7 3 0 5 -11 4 -24 -2 -13 0 -24 3 -23 25 3 40 -5
45 -26 4 -15 13 -23 23 -22 12 1 18 -6 18 -19 0 -14 8 -21 26 -23 22 -3 25 -7
21 -28 -5 -25 14 -31 30 -9 4 6 10 -4 14 -22 3 -18 9 -32 13 -31 21 2 30 -5
33 -24 2 -17 9 -22 24 -20 17 2 21 -2 20 -20 -1 -14 5 -24 14 -24 8 -1 20 -2
26 -3 6 0 11 -11 10 -23 -1 -17 5 -23 19 -23 13 0 21 -8 23 -22 3 -17 10 -23
28 -23 14 0 23 -4 20 -9 -10 -16 5 -41 23 -39 10 2 17 -5 19 -19 2 -15 10 -23
22 -23 19 0 30 -17 23 -36 -2 -7 -13 -10 -24 -7 -15 4 -19 0 -19 -20 0 -19 -6
-26 -22 -29 -15 -2 -23 -10 -23 -23 0 -13 -7 -20 -20 -20 -13 0 -22 -8 -25
-25 -3 -17 -12 -25 -25 -25 -13 0 -20 -7 -20 -20 -1 -11 -6 -19 -13 -18 -7 2
-12 -3 -12 -10 0 -8 -4 -7 -10 3 -8 13 -10 12 -11 -5 -1 -11 -1 -25 0 -31 1
-7 -9 -9 -25 -6 -22 4 -25 2 -22 -19 2 -16 -2 -24 -12 -25 -8 -1 -20 -2 -27
-3 -6 0 -9 -10 -6 -21 4 -16 0 -20 -21 -20 -14 0 -25 -3 -25 -7 4 -28 -3 -44
-18 -41 -12 2 -19 -4 -21 -19 -3 -17 -10 -23 -28 -23 -13 0 -23 -3 -23 -7 4
-27 -3 -45 -15 -40 -8 3 -22 -4 -33 -15 -10 -12 -12 -18 -5 -14 6 4 12 2 12
-3 0 -6 -18 -10 -41 -9 -31 1 -43 6 -49 22 -4 12 -5 25 -3 29 3 5 -4 4 -16 -2
-11 -7 -21 -8 -22 -4 0 4 -3 17 -6 28 -2 11 -5 27 -6 36 -1 9 -7 16 -14 16 -8
0 -9 -6 -2 -19 7 -13 6 -18 -4 -18 -9 0 -14 15 -16 45 -1 25 2 45 6 44 22 -4
33 3 33 20 0 12 9 21 25 25 17 4 25 12 23 24 -2 12 4 17 20 16 22 -1 26 6 23
38 -2 13 4 16 23 12 22 -4 25 -1 23 18 -1 17 4 24 21 26 14 2 22 10 22 23 0
12 9 21 26 25 19 5 24 12 21 25 -4 15 0 19 19 19 24 0 26 3 27 52 1 15 5 24
10 21 5 -3 4 3 -2 13 -5 11 -12 27 -15 36 -3 11 -11 15 -21 12 -11 -5 -15 1
-15 20 0 21 -5 26 -25 26 -20 0 -25 5 -25 25 0 25 -18 30 -32 10 -7 -10 -12
15 -9 43 1 7 -9 12 -24 12 -17 0 -25 5 -25 18 0 9 -10 22 -22 27 -14 6 -22 17
-20 28 2 12 -4 17 -23 17 -20 0 -25 5 -25 26 0 21 -4 24 -20 19 -19 -6 -25 2
-21 33 1 7 -9 12 -25 12 -23 0 -26 3 -22 25 4 21 2 24 -12 20 -10 -3 -28 -2
-41 3 -25 10 -52 5 -45 -7 3 -4 0 -13 -6 -21 -8 -12 -9 -12 -4 2 3 10 1 20 -4
23 -6 4 -10 1 -10 -5 0 -6 -4 -9 -9 -6 -5 4 -7 -3 -4 -14 4 -15 0 -20 -15 -20
-19 0 -39 -32 -34 -52 3 -12 -13 -9 -26 4 -10 10 -12 7 -10 -12 3 -21 -2 -26
-25 -28 -15 -2 -25 -7 -22 -12 3 -5 13 -7 23 -4 14 5 14 4 2 -4 -8 -6 -18 -8
-22 -6 -4 3 -8 -2 -8 -10 0 -9 -9 -16 -20 -16 -13 0 -20 -7 -20 -20 0 -18 -16
-25 -42 -21 -5 0 -8 -10 -8 -23 0 -25 -22 -40 -37 -25 -5 5 -9 1 -9 -10 0 -11
5 -17 11 -13 5 3 4 -1 -3 -10 -7 -9 -21 -14 -32 -11 -12 3 -20 0 -20 -6 0 -7
6 -9 13 -5 6 4 5 -1 -4 -10 -9 -10 -24 -19 -34 -20 -10 -1 -20 -11 -21 -21 -3
-21 -24 -36 -38 -28 -5 3 -6 1 -2 -5 9 -14 -31 -55 -45 -46 -8 4 -7 0 0 -14
10 -18 8 -21 -17 -24 -19 -2 -28 -9 -30 -25 -3 -17 -10 -23 -30 -23 -21 0 -24
-2 -12 -10 11 -7 11 -10 2 -10 -7 0 -10 -4 -7 -10 4 -6 -5 -10 -19 -10 -21 0
-26 -5 -26 -24 0 -18 -5 -23 -22 -22 -17 1 -24 -5 -26 -21 -3 -20 -12 -27 -33
-25 -4 1 -10 -10 -13 -23 -4 -17 -13 -25 -27 -25 -15 0 -19 -5 -15 -15 4 -11
-3 -19 -19 -25 -16 -6 -25 -17 -25 -30 0 -12 -6 -20 -12 -19 -28 3 -38 -2 -38
-21 0 -13 -7 -20 -19 -20 -13 0 -21 -8 -23 -22 -2 -15 -11 -24 -25 -26 -17 -2
-23 -10 -23 -27 0 -21 -3 -23 -22 -16 -13 5 -22 16 -20 25 2 11 -5 16 -23 16
-20 0 -25 5 -25 26 0 20 -4 25 -22 22 -15 -2 -23 2 -24 12 -2 36 -5 40 -26 40
-19 0 -20 2 -8 10 13 8 13 10 1 10 -13 0 -13 2 -2 13 11 10 14 10 18 0 5 -14
24 -18 22 -5 -1 4 -1 14 0 22 1 13 2 13 11 0 8 -13 10 -13 10 2 0 9 -6 19 -12
21 -7 3 -3 6 10 6 12 1 22 6 22 12 0 6 7 9 15 6 8 -4 17 -1 21 5 4 7 3 8 -4 4
-7 -4 -12 -2 -12 4 0 6 -5 8 -12 4 -7 -4 -8 -3 -4 5 4 6 12 9 17 5 5 -3 15 -1
22 4 7 5 19 8 28 7 11 -2 16 4 15 19 -1 16 5 21 21 20 15 -1 24 6 29 25 4 14
7 29 6 34 -1 4 3 7 8 7 6 0 10 -4 10 -10 0 -5 5 -10 10 -10 6 0 10 6 9 13 -3
24 1 38 10 32 5 -3 12 -1 16 5 4 6 10 8 15 5 5 -3 7 4 5 15 -3 15 1 20 16 20
19 0 42 37 32 52 -2 4 3 5 12 1 21 -7 39 18 22 29 -11 7 21 13 46 9 4 0 7 10
7 23 0 28 19 44 30 26 5 -8 10 -9 14 -2 3 6 -4 18 -16 28 -18 13 -19 15 -4 10
10 -3 24 -2 30 3 6 5 16 9 21 10 6 0 12 8 15 19 3 11 12 18 23 16 16 -2 21 7
18 34 -2 10 18 17 42 13 4 0 7 4 7 10 0 6 -7 9 -15 6 -8 -4 -17 -2 -20 4 -4 5
-1 8 7 7 7 -2 12 3 10 10 -1 8 2 11 9 6 6 -3 15 0 20 7 13 20 11 31 -3 23 -7
-4 -9 -3 -5 1 7 9 28 15 54 17 10 1 10 5 1 15 -9 11 -9 16 2 23 8 5 17 7 19 4
3 -3 0 -9 -8 -13 -10 -6 -9 -10 4 -14 9 -4 13 -3 10 2 -3 5 -1 13 5 16 6 4 10
16 8 27 -2 12 3 23 11 26 9 3 11 -2 7 -19 -3 -13 -3 -18 0 -11 3 6 9 10 14 7
4 -3 7 3 6 13 0 9 4 16 9 15 6 0 16 6 24 14 12 13 11 14 -8 8 -12 -4 -21 -2
-21 4 0 6 11 11 24 11 14 0 28 5 31 10 4 6 11 8 16 5 5 -3 6 1 2 10 -4 13 -8
14 -14 4 -4 -8 -10 -11 -13 -8 -3 2 -1 11 4 19 7 11 12 11 23 2 14 -12 16 -8
18 43 1 11 3 14 6 8 3 -7 9 -13 14 -13 6 0 7 4 4 10 -3 6 1 7 9 4 15 -6 22 11
17 39 0 4 4 7 10 7 6 0 9 -7 6 -14 -4 -10 -1 -13 9 -9 8 3 12 8 10 11 -3 3 -1
11 5 19 9 10 15 10 25 2 10 -8 14 -8 14 0 0 10 -13 15 -32 12 -18 -3 -6 17 12
22 13 3 18 1 14 -6 -5 -8 -4 -9 4 -2 5 6 12 19 14 30 2 11 11 20 19 20 9 0 23
6 31 13 8 6 19 8 23 4 5 -4 5 -1 1 6 -6 10 -11 10 -22 1 -9 -7 -14 -8 -14 -1
0 6 9 14 20 17 11 3 20 10 20 14 0 5 11 7 25 6 14 -2 25 1 25 6 0 6 -7 9 -16
7 -10 -2 -19 2 -21 9 -3 8 3 11 16 8 14 -2 21 1 21 11 0 11 6 13 23 8 22 -7
22 -6 -2 13 -18 15 -20 20 -8 20 9 0 13 -5 10 -10z m-1426 -12 c0 -8 -6 -15
-13 -15 -8 0 -11 6 -8 15 4 8 9 15 13 15 4 0 8 -7 8 -15z m179 3 c4 -7 3 -8
-4 -4 -7 4 -12 2 -12 -4 0 -6 -5 -8 -11 -4 -8 4 -7 9 2 15 18 11 17 11 25 -3z
m304 -102 c0 -7 -6 -13 -14 -13 -8 0 -11 8 -8 19 5 19 22 15 22 -6z m-85 -76
c3 -5 1 -10 -4 -10 -6 0 -11 5 -11 10 0 6 2 10 4 10 3 0 8 -4 11 -10z m142
-135 c0 -8 -4 -12 -9 -9 -5 3 -6 10 -3 15 9 13 12 11 12 -6z m-903 -60 c-4 -8
-8 -15 -10 -15 -2 0 -4 7 -4 15 0 8 4 15 10 15 5 0 7 -7 4 -15z m496 0 c0 -6
-7 -12 -15 -12 -8 0 -15 6 -15 12 0 6 7 12 15 12 8 0 15 -6 15 -12z m1220 -39
c0 -2 -7 -7 -16 -10 -8 -3 -12 -2 -9 4 6 10 25 14 25 6z m-1803 -41 c0 -17
-13 -20 -21 -6 -4 5 0 12 6 14 7 3 13 6 14 6 0 1 1 -6 1 -14z m493 -10 c0 -6
-6 -12 -13 -12 -8 0 -14 6 -14 12 0 6 6 12 14 12 7 0 13 -6 13 -12z m1400 -38
c0 -8 -3 -8 -9 1 -7 11 -9 11 -14 -2 -4 -9 -3 -15 1 -15 22 4 42 -2 37 -10 -3
-5 -1 -13 5 -16 6 -4 9 -3 8 2 -2 4 2 9 7 10 6 2 10 -5 10 -15 0 -10 9 -18 22
-20 14 -2 25 -13 29 -27 3 -14 9 -24 13 -23 21 2 31 -4 31 -22 0 -15 7 -20 27
-20 20 0 24 -3 16 -11 -17 -17 -4 -39 24 -39 17 0 23 -4 20 -14 -7 -17 30 -50
37 -33 3 7 5 6 5 -3 1 -21 -11 -35 -29 -35 -10 0 -14 -8 -12 -25 2 -14 1 -22
-3 -18 -13 12 -47 -12 -41 -29 4 -11 2 -13 -9 -9 -8 3 -15 1 -15 -5 0 -6 -4
-7 -10 -4 -6 4 -10 -5 -10 -19 0 -21 -5 -26 -25 -26 -23 0 -31 -13 -26 -42 2
-12 -14 -9 -28 5 -11 10 -13 10 -7 0 4 -7 3 -13 -2 -13 -6 0 -8 -8 -5 -19 4
-16 -2 -19 -37 -23 -37 -3 -43 -1 -51 20 -6 15 -15 22 -23 19 -15 -6 -30 18
-21 33 3 4 -3 11 -12 14 -9 4 -20 1 -25 -6 -5 -9 -8 -6 -8 10 0 12 -6 22 -12
22 -9 0 -9 3 1 9 11 7 9 10 -10 13 -16 2 -25 11 -27 25 -2 14 -11 23 -25 25
-12 2 -23 9 -23 16 -3 27 -4 30 -16 28 -7 0 -15 4 -16 9 -2 6 -8 16 -14 23 -8
9 -6 12 5 12 10 0 13 6 10 20 -3 12 0 20 6 20 7 0 10 -4 7 -8 -2 -4 0 -14 6
-22 8 -12 9 -12 4 3 -3 9 0 17 6 17 6 0 8 3 4 7 -3 4 6 13 21 20 16 7 19 11 7
8 -13 -4 -21 0 -21 9 0 7 7 13 16 11 9 -1 21 2 28 7 7 5 17 7 22 3 7 -3 8 0 5
9 -3 9 -10 13 -15 10 -5 -3 -9 0 -9 5 0 14 13 14 26 1 6 -6 10 0 12 17 1 15 7
32 13 38 8 7 9 4 5 -11 -4 -14 -2 -21 7 -21 9 0 12 7 10 17 -3 10 2 20 11 23
9 4 16 13 16 22 0 8 5 15 11 15 6 0 8 -9 4 -22 -4 -17 -3 -19 4 -8 5 8 11 26
13 40 5 37 38 52 38 17z m-1445 4 c3 -5 1 -12 -5 -16 -5 -3 -10 1 -10 9 0 18
6 21 15 7z m183 -8 c-2 -10 4 -18 12 -19 37 -3 41 -5 38 -21 -2 -12 4 -19 19
-21 14 -2 23 -11 25 -25 2 -14 10 -22 23 -22 11 0 21 -6 21 -12 1 -7 2 -17 3
-23 0 -5 10 -10 21 -10 14 0 20 -7 20 -24 0 -18 5 -23 23 -22 17 1 22 -4 21
-21 -1 -17 4 -23 20 -23 16 0 22 -7 24 -24 1 -19 -2 -22 -22 -19 -20 4 -23 1
-22 -19 1 -17 -5 -24 -21 -26 -15 -2 -23 -10 -23 -23 0 -10 -4 -20 -10 -20 -5
-1 -16 -2 -22 -3 -7 0 -13 -10 -13 -21 0 -13 -8 -21 -22 -23 -15 -2 -23 -10
-23 -23 0 -10 -4 -20 -10 -20 -5 -1 -16 -2 -22 -3 -7 0 -13 -10 -13 -21 0 -13
-9 -21 -31 -25 -17 -4 -37 -10 -44 -15 -9 -5 -11 -4 -6 3 4 7 0 12 -11 13 -10
0 -13 3 -6 5 17 8 4 34 -17 34 -19 0 -34 25 -24 41 3 5 2 8 -3 7 -4 -1 -24 1
-43 5 -30 7 -32 9 -17 18 23 14 22 28 -3 22 -12 -3 -20 0 -20 6 0 7 -5 9 -12
5 -10 -6 -10 -4 0 8 11 14 10 17 -8 23 -11 3 -27 18 -35 33 -8 15 -14 21 -15
14 0 -24 -20 -1 -20 24 0 21 9 29 33 25 11 -2 8 14 -5 28 -9 10 -9 12 -1 7 6
-3 14 -2 18 4 4 6 11 8 16 5 5 -4 9 -1 9 5 0 6 4 9 9 5 6 -3 8 4 6 15 -4 18 9
26 38 21 4 0 7 10 7 24 0 20 5 25 25 25 14 0 25 5 25 10 0 6 -6 10 -12 10 -7
0 -3 7 9 15 12 9 26 15 30 14 20 -3 27 2 13 12 -12 9 -13 11 -1 16 7 3 21 14
30 23 21 23 22 24 19 3z m-598 -73 c0 -5 -5 -10 -11 -10 -5 0 -7 5 -4 10 3 6
8 10 11 10 2 0 4 -4 4 -10z m1260 -10 c0 -5 -5 -10 -11 -10 -5 0 -7 5 -4 10 3
6 8 10 11 10 2 0 4 -4 4 -10z m-1479 -63 c-13 -13 -26 -3 -16 12 3 6 11 8 17
5 6 -4 6 -10 -1 -17z m1159 3 c0 -5 -4 -10 -10 -10 -5 0 -10 5 -10 10 0 6 5
10 10 10 6 0 10 -4 10 -10z m-1035 -38 c-3 -3 -11 0 -18 7 -9 10 -8 11 6 5 10
-3 15 -9 12 -12z m490 8 c-3 -5 -12 -10 -18 -10 -7 0 -6 4 3 10 19 12 23 12
15 0z m-711 -55 c-4 -8 -11 -15 -16 -15 -6 0 -5 6 2 15 7 8 14 15 16 15 2 0 1
-7 -2 -15z m506 7 c0 -5 -6 -17 -14 -28 -14 -19 -14 -19 -13 1 2 23 27 48 27
27z m1201 -55 c-10 -9 -11 -8 -5 6 3 10 9 15 12 12 3 -3 0 -11 -7 -18z m1409
17 c0 -8 -19 -13 -24 -6 -3 5 1 9 9 9 8 0 15 -2 15 -3z m-3113 -45 c2 -17 -1
-18 -13 -8 -13 11 -10 20 11 29 1 0 1 -9 2 -21z m1353 7 c0 -2 -8 -10 -17 -17
-16 -13 -17 -12 -4 4 13 16 21 21 21 13z m-1137 -63 c-3 -7 -6 -13 -8 -13 -2
0 -5 6 -8 13 -3 8 1 14 8 14 7 0 11 -6 8 -14z m1087 13 c0 -3 -4 -8 -10 -11
-5 -3 -10 -1 -10 4 0 6 5 11 10 11 6 0 10 -2 10 -4z m675 -6 c3 -5 2 -10 -4
-10 -5 0 -13 5 -16 10 -3 6 -2 10 4 10 5 0 13 -4 16 -10z m-163 -29 c4 -1 5
-10 3 -21 -3 -16 2 -20 21 -20 19 0 24 -5 24 -24 0 -18 5 -23 23 -22 17 1 22
-4 21 -21 -1 -18 4 -23 22 -23 19 0 24 -5 24 -26 0 -21 4 -25 20 -21 15 4 22
-1 26 -19 4 -14 13 -24 24 -24 12 0 20 -9 22 -22 2 -13 9 -24 16 -24 6 -1 16
-2 21 -3 5 0 8 -9 7 -18 0 -12 7 -19 22 -21 16 -3 22 -10 22 -28 0 -13 3 -23
8 -23 22 4 42 -2 37 -11 -3 -5 -1 -10 5 -10 6 0 8 -4 5 -10 -3 -5 3 -10 14
-10 18 0 26 -13 23 -41 -1 -3 5 -6 13 -6 8 0 12 4 9 8 -2 4 1 11 7 15 7 4 9 3
5 -4 -3 -6 -2 -13 4 -17 5 -3 10 -15 10 -26 0 -10 3 -18 8 -18 27 5 40 -3 35
-21 -4 -14 1 -21 21 -26 17 -4 26 -13 26 -25 0 -16 14 -24 41 -21 3 1 5 -9 5
-20 -1 -13 6 -22 18 -24 29 -4 44 -23 26 -34 -13 -9 -13 -10 0 -10 9 0 22 6
29 13 10 8 12 8 7 0 -3 -6 -2 -14 4 -18 6 -4 8 -10 5 -15 -7 -11 22 -33 35
-25 10 6 14 -7 10 -34 -1 -9 4 -12 15 -7 12 4 20 -2 28 -24 11 -30 27 -41 27
-18 0 6 6 3 14 -7 8 -11 12 -26 9 -35 -4 -13 -4 -13 6 0 9 13 11 12 11 -3 0
-10 3 -16 8 -14 4 3 13 -1 20 -9 8 -9 9 -14 2 -14 -6 0 -8 -4 -5 -10 3 -5 1
-10 -5 -10 -7 0 -9 -8 -5 -21 6 -19 4 -21 -14 -16 -20 5 -24 1 -24 -33 0 -8
-10 -16 -24 -17 -44 -4 -50 -6 -50 -20 0 -17 14 -17 20 0 3 7 6 5 6 -5 1 -15
-8 -18 -45 -18 -40 0 -44 2 -30 15 17 17 30 20 21 5 -3 -5 -1 -10 4 -10 14 0
14 17 1 25 -6 4 -18 1 -27 -7 -9 -7 -14 -8 -10 -2 4 7 -1 18 -10 25 -11 10
-14 10 -9 2 5 -9 2 -11 -9 -7 -13 5 -13 9 -3 22 8 9 8 13 2 9 -7 -4 -17 5 -24
23 -7 16 -16 27 -20 25 -5 -3 -11 -1 -15 5 -4 6 -11 8 -16 5 -5 -4 -9 0 -9 7
0 10 -3 9 -11 -2 -8 -12 -9 -11 -4 6 4 15 0 24 -11 28 -9 4 -14 9 -11 13 4 3
-5 14 -18 25 -14 10 -24 24 -22 30 1 6 -5 13 -13 15 -9 3 -11 1 -5 -4 16 -13
16 -33 0 -33 -8 0 -14 3 -14 8 1 4 1 18 0 31 -1 21 -3 22 -18 10 -15 -13 -15
-12 -5 8 18 33 14 38 -7 12 -13 -16 -19 -19 -19 -9 2 38 -3 52 -16 47 -10 -4
-13 -1 -9 8 3 8 10 12 16 8 6 -3 7 -1 3 6 -4 6 -13 10 -19 9 -20 -4 -67 12
-67 22 0 14 13 13 28 -2 9 -9 12 -9 12 0 0 6 -11 14 -25 18 -15 4 -22 11 -18
18 3 6 1 6 -8 -1 -17 -17 -30 -16 -23 1 7 18 -23 47 -42 39 -11 -4 -15 0 -14
13 5 41 1 48 -17 33 -11 -10 -14 -10 -9 -1 4 7 2 12 -5 12 -7 0 -9 3 -6 7 4 3
-1 15 -10 26 -10 11 -12 17 -6 13 9 -5 11 -2 7 8 -3 8 -14 13 -24 11 -13 -3
-19 4 -24 26 -3 18 -10 28 -16 24 -8 -5 -7 -12 2 -23 12 -15 11 -16 -4 -3 -10
7 -15 17 -12 22 3 5 0 9 -5 9 -6 0 -11 9 -11 20 0 14 -7 20 -24 20 -17 0 -23
5 -22 18 2 10 -5 19 -18 22 -11 3 -23 16 -26 28 -3 13 -8 23 -12 23 -23 -2
-28 0 -28 15 0 9 -5 12 -12 8 -9 -5 -9 -2 1 9 8 10 9 17 3 17 -6 0 -14 -5 -18
-11 -4 -8 -11 -3 -20 12 -7 13 -10 27 -8 30 2 4 -11 9 -29 13 -17 4 -27 10
-22 14 13 9 18 35 5 27 -5 -3 -10 -1 -10 5 0 6 -4 9 -9 5 -5 -3 -13 0 -17 6
-5 8 -3 9 6 4 10 -6 12 -4 7 9 -4 9 -3 15 2 11 5 -3 16 1 24 9 8 8 18 12 23 8
5 -4 2 1 -5 11 -8 9 -11 20 -7 24 3 3 6 0 6 -8 0 -11 2 -11 10 1 8 12 10 12
10 -5 1 -17 3 -17 11 4 5 14 7 31 4 38 -2 8 -1 12 3 10 4 -3 16 -1 27 3 11 4
27 6 35 4 8 -1 18 -3 22 -3z m-602 -61 c0 -5 -5 -10 -11 -10 -5 0 -7 5 -4 10
3 6 8 10 11 10 2 0 4 -4 4 -10z m860 -10 c0 -5 -5 -10 -11 -10 -5 0 -7 5 -4
10 3 6 8 10 11 10 2 0 4 -4 4 -10z m-906 -41 c-3 -5 -10 -7 -15 -3 -5 3 -7 10
-3 15 3 5 10 7 15 3 5 -3 7 -10 3 -15z m-314 7 c0 -2 -7 -7 -16 -10 -8 -3 -12
-2 -9 4 6 10 25 14 25 6z m-123 -43 c0 -7 -4 -13 -8 -13 -4 0 -9 6 -12 13 -3
8 0 14 7 14 7 0 13 -6 13 -14z m-277 -63 c0 -5 -2 -10 -4 -10 -3 0 -8 5 -11
10 -3 6 -1 10 4 10 6 0 11 -4 11 -10z m-136 -31 c-3 -5 -10 -7 -15 -3 -5 3 -7
10 -3 15 3 5 10 7 15 3 5 -3 7 -10 3 -15z m1200 -21 c-3 -4 0 -8 5 -8 6 0 11
10 12 23 1 20 1 21 7 2 4 -11 13 -20 20 -21 28 -2 32 -5 32 -24 0 -13 7 -20
20 -20 13 0 20 -7 20 -20 0 -13 9 -22 25 -26 15 -4 25 -13 25 -24 0 -12 9 -20
23 -22 16 -2 22 -9 21 -26 -1 -19 3 -23 17 -19 22 6 28 -2 31 -36 2 -20 6 -24
18 -17 12 7 16 3 18 -16 2 -22 0 -23 -19 -13 -12 6 -19 7 -15 1 3 -5 -6 -13
-19 -16 -16 -4 -23 -11 -19 -18 6 -9 9 -9 12 0 5 17 19 15 19 -2 0 -8 -3 -15
-6 -14 -26 3 -40 -6 -45 -27 -4 -14 -11 -23 -17 -20 -6 5 -6 13 3 23 10 15 10
15 -2 4 -8 -7 -15 -18 -15 -25 -1 -7 -7 -11 -15 -9 -11 3 -11 0 0 -13 19 -22
6 -29 -16 -8 -16 16 -17 16 -11 1 4 -11 0 -21 -11 -27 -10 -7 -12 -11 -4 -11
10 0 10 -3 0 -14 -7 -7 -19 -11 -25 -9 -7 3 -13 0 -13 -5 0 -6 -9 -9 -19 -7
-14 3 -18 -1 -14 -12 4 -11 8 -11 13 -3 5 8 10 9 14 2 8 -14 -2 -19 -44 -24
-30 -2 -35 0 -38 19 -2 14 -11 23 -25 25 -12 2 -23 9 -23 16 -1 6 -2 17 -3 22
0 6 -9 10 -18 8 -12 -2 -19 4 -21 19 -2 14 -11 23 -25 25 -14 2 -22 10 -22 23
0 12 -7 20 -18 20 -19 0 -39 24 -31 37 3 4 -6 8 -20 8 -22 0 -26 5 -26 28 0
15 7 36 15 46 8 11 15 15 15 10 0 -6 -5 -15 -11 -21 -9 -9 -7 -12 10 -10 12 1
20 6 17 13 -3 7 2 20 10 31 9 10 13 13 10 7 -3 -6 1 -11 9 -11 8 0 12 4 10 8
-10 15 8 39 30 39 18 0 22 4 18 20 -4 14 0 20 11 20 9 0 16 5 16 11 0 5 5 7
11 4 6 -4 9 0 7 11 -2 12 4 20 17 22 11 2 25 9 30 14 7 8 4 9 -10 4 -18 -7
-18 -6 2 13 14 13 20 28 17 39 -5 14 -4 14 4 2 6 -8 8 -18 6 -22z m-654 -12
c0 -2 -8 -10 -17 -17 -16 -13 -17 -12 -4 4 13 16 21 21 21 13z m-1325 -16 c3
-5 1 -10 -4 -10 -6 0 -11 5 -11 10 0 6 2 10 4 10 3 0 8 -4 11 -10z m2260 -8
c-3 -3 -11 0 -18 7 -9 10 -8 11 6 5 10 -3 15 -9 12 -12z m-2168 -82 c-3 -11
-1 -18 4 -14 5 3 9 12 9 20 0 8 10 14 25 14 18 0 25 -5 25 -19 0 -10 8 -25 17
-32 11 -10 14 -10 9 -1 -4 6 -2 12 3 12 11 0 15 -13 12 -37 -1 -8 9 -13 24
-13 14 0 24 -3 24 -7 -5 -31 3 -44 23 -41 17 2 23 -2 23 -17 0 -13 8 -21 23
-23 14 -2 22 -10 22 -23 0 -11 9 -21 24 -25 15 -3 23 -12 21 -22 -1 -10 6 -19
19 -22 12 -3 22 -15 24 -28 2 -12 9 -22 15 -21 27 3 36 -2 32 -21 -3 -16 2
-20 21 -20 18 0 24 -5 24 -23 0 -30 10 -40 27 -26 7 6 14 8 14 3 1 -5 2 -13 4
-19 1 -5 3 -15 3 -22 1 -6 11 -9 21 -6 15 4 20 -1 23 -19 2 -15 11 -24 26 -26
24 -4 25 -4 16 -26 -3 -9 -14 -16 -24 -16 -12 0 -20 -9 -22 -22 -2 -15 -9 -22
-21 -22 -16 2 -21 -7 -18 -33 1 -8 -9 -13 -24 -13 -20 0 -25 -5 -25 -25 0 -25
-14 -33 -25 -15 -4 6 -10 8 -15 5 -5 -3 -7 4 -5 15 3 15 -1 20 -19 20 -17 0
-26 7 -30 24 -3 14 -13 23 -23 22 -11 0 -18 6 -18 19 0 13 -8 21 -22 23 -16 2
-23 10 -23 26 0 18 -5 23 -22 22 -16 -1 -23 4 -22 17 1 10 -7 19 -22 23 -17 4
-24 13 -24 30 0 17 -5 22 -20 19 -19 -4 -24 5 -21 33 2 10 -24 16 -66 15 -7
-1 -10 3 -8 8 3 4 -4 7 -15 6 -11 -1 -20 -5 -20 -9 0 -4 -5 -8 -11 -8 -6 0 -8
9 -4 23 6 21 5 21 -6 2 -15 -24 -30 -35 -40 -29 -4 2 -10 -3 -13 -12 -4 -12
-2 -15 9 -11 8 4 17 3 19 -2 3 -4 0 -8 -7 -9 -21 -1 -59 -11 -65 -16 -3 -3 0
-12 6 -19 9 -10 9 -14 -1 -15 -42 -3 -55 -7 -51 -14 3 -5 11 -5 17 -2 7 4 2
-3 -11 -15 -13 -13 -29 -20 -37 -17 -8 3 -14 2 -14 -2 4 -26 -4 -41 -23 -44
-15 -2 -23 -10 -23 -23 0 -13 -8 -21 -22 -23 -13 -2 -23 -8 -23 -13 0 -6 5 -7
10 -4 6 3 10 2 10 -3 0 -11 -27 -25 -50 -26 -8 -1 -15 -10 -16 -21 -2 -36 -4
-40 -14 -25 -7 11 -10 11 -10 2 0 -8 -5 -10 -12 -6 -8 5 -9 2 -5 -9 3 -9 2
-19 -2 -22 -5 -2 -7 -18 -6 -35 3 -32 -9 -48 -21 -29 -4 7 -3 9 3 6 5 -3 10 0
10 7 0 11 -4 12 -19 3 -10 -7 -14 -13 -8 -15 5 -2 10 -8 10 -13 0 -6 -5 -7
-12 -3 -6 4 -8 3 -4 -4 3 -6 15 -9 26 -7 18 3 25 -9 22 -37 -1 -3 5 -9 14 -12
8 -3 12 -2 9 4 -3 6 -3 10 0 10 3 0 11 -13 16 -30 8 -22 17 -30 34 -30 13 0
27 -5 31 -12 4 -7 3 -8 -4 -4 -7 4 -12 1 -12 -8 0 -8 5 -18 10 -21 6 -3 10 -1
10 4 0 6 5 11 11 11 5 0 7 -4 4 -10 -3 -5 2 -10 12 -10 14 0 15 -2 4 -9 -17
-11 -6 -31 19 -31 11 0 20 -10 24 -25 4 -16 11 -22 21 -19 14 6 20 -11 16 -38
-2 -13 24 -9 38 5 7 6 12 8 11 2 -6 -29 2 -55 16 -55 8 0 23 -7 31 -16 14 -13
14 -17 2 -26 -10 -7 -8 -8 9 -5 17 4 25 0 31 -16 5 -12 7 -25 5 -28 -2 -3 3
-6 11 -6 8 0 16 4 16 9 1 4 2 12 3 17 3 20 13 20 12 0 -1 -16 6 -23 22 -25 18
-3 22 1 22 20 0 20 4 24 25 21 21 -2 25 1 23 19 -2 15 3 22 19 24 14 2 23 11
25 25 2 14 10 22 23 22 14 0 20 7 19 23 0 17 5 22 23 22 18 0 23 5 23 25 0 20
5 25 25 25 18 0 25 5 25 20 0 13 7 20 20 20 18 0 25 16 21 42 0 5 2 7 7 7 26
-4 42 3 42 21 0 11 5 20 10 20 21 0 25 2 33 16 4 8 5 19 2 24 -4 6 -3 10 2 9
27 -5 43 3 43 20 0 25 20 38 31 20 9 -15 12 -7 9 29 -1 17 4 22 24 22 19 0 26
5 26 20 0 17 14 25 41 22 3 -1 5 10 3 24 -1 14 3 24 9 23 33 -4 46 2 42 20 -2
14 4 21 21 25 16 4 24 13 22 24 -2 12 5 18 25 20 15 2 25 8 21 13 -3 6 -3 17
1 27 5 13 8 14 14 3 7 -11 11 -9 20 8 7 12 9 26 6 31 -3 6 5 10 19 10 19 0 26
5 26 19 0 12 9 21 25 25 16 4 25 13 25 26 0 13 7 20 19 20 13 0 21 8 23 23 2
15 9 21 21 19 9 -2 17 2 17 8 0 6 6 8 13 4 8 -5 8 -3 -2 9 -11 14 -11 18 5 24
31 12 97 9 102 -5 2 -7 9 -9 15 -5 7 4 5 -2 -3 -12 -9 -11 -10 -16 -2 -11 7 4
12 1 13 -8 3 -30 4 -34 13 -43 5 -5 6 -3 2 5 -4 7 -2 12 6 12 9 0 9 3 -2 10
-13 8 -12 10 3 10 10 0 17 -8 17 -19 0 -11 4 -22 9 -25 9 -6 7 -49 -5 -67 -5
-8 -3 -9 6 -4 9 5 11 4 6 -3 -4 -7 -18 -12 -31 -12 -17 0 -25 -6 -27 -22 -2
-17 -9 -22 -24 -21 -16 2 -21 -3 -20 -20 1 -16 -5 -23 -22 -25 -12 -2 -22 -9
-21 -15 4 -30 -2 -37 -25 -33 -19 3 -23 0 -22 -17 1 -16 -6 -23 -21 -25 -13
-2 -24 -8 -24 -13 -1 -5 -2 -15 -3 -21 -1 -7 -11 -12 -24 -12 -17 1 -22 -4
-22 -22 0 -17 -6 -24 -20 -24 -13 0 -20 -7 -20 -20 0 -11 -4 -21 -10 -21 -5
-1 -16 -2 -22 -3 -7 0 -14 -11 -16 -23 -2 -16 -10 -23 -26 -23 -17 0 -22 -6
-22 -22 1 -17 -5 -24 -21 -26 -16 -2 -23 -10 -23 -26 0 -17 -6 -22 -22 -22
-16 1 -23 -5 -23 -19 0 -13 -7 -20 -20 -20 -13 0 -21 -8 -23 -22 -2 -15 -10
-23 -22 -23 -12 0 -20 -8 -22 -22 -2 -13 -9 -22 -16 -21 -6 2 -12 -3 -12 -10
0 -8 -4 -7 -10 3 -8 12 -10 9 -10 -12 0 -16 -4 -29 -10 -29 -5 -1 -14 -3 -20
-4 -5 -1 -13 -3 -16 -4 -4 0 -2 -7 4 -13 7 -9 6 -17 -3 -25 -9 -8 -16 -9 -20
-3 -9 15 -25 2 -25 -21 0 -18 -10 -23 -39 -20 -7 2 -10 -3 -6 -8 12 -21 -4
-49 -25 -44 -15 4 -20 0 -20 -16 0 -15 -6 -21 -23 -21 -18 0 -23 -5 -23 -22 1
-13 -5 -23 -11 -24 -7 -1 -17 -2 -23 -3 -5 0 -10 -10 -10 -21 0 -13 -7 -20
-19 -20 -12 0 -21 -9 -25 -25 -4 -16 -13 -25 -26 -25 -13 0 -20 -7 -20 -19 0
-12 -10 -21 -27 -26 -16 -4 -22 -10 -16 -12 17 -6 -9 -33 -32 -33 -13 0 -16
-6 -12 -21 5 -17 2 -20 -14 -16 -10 3 -17 1 -13 -4 9 -15 -13 -10 -26 6 -6 8
-8 20 -4 26 5 8 3 9 -5 5 -7 -5 -10 -14 -7 -22 3 -8 1 -14 -4 -14 -6 0 -11 5
-11 10 -1 6 -3 15 -4 20 -1 6 -3 16 -4 23 -1 8 -4 7 -11 -3 -8 -13 -11 -13
-27 3 -9 9 -12 17 -6 17 6 0 13 -6 16 -12 3 -7 4 -3 4 8 -1 14 -6 20 -14 17
-7 -3 -13 2 -13 11 0 9 -5 16 -11 16 -5 0 -7 4 -4 10 3 5 0 7 -8 5 -7 -3 -19
5 -27 20 -7 14 -15 23 -18 20 -3 -2 0 -11 6 -18 9 -10 8 -14 -3 -14 -8 0 -13
3 -10 5 3 3 -2 16 -10 28 -9 15 -11 24 -4 26 7 2 5 8 -4 16 -12 10 -15 10 -13
-2 0 -8 -3 -14 -9 -13 -5 1 -10 9 -10 17 0 9 -9 15 -22 15 -12 0 -25 4 -30 9
-5 5 -3 6 5 2 16 -10 16 9 -1 26 -8 7 -13 20 -12 29 2 8 -5 16 -14 17 -48 5
-71 17 -71 35 0 6 7 2 15 -9 9 -12 14 -14 15 -6 0 8 5 10 13 6 7 -4 9 -3 4 2
-5 5 -12 9 -15 8 -4 0 -18 5 -31 12 -14 7 -28 11 -33 8 -4 -3 -8 -1 -8 5 0 5
5 13 10 16 6 3 10 1 10 -4 0 -6 5 -11 11 -11 8 0 8 5 -1 15 -7 8 -16 13 -20
10 -4 -3 -13 9 -20 25 -7 17 -15 29 -17 26 -3 -2 0 -13 6 -23 7 -15 7 -20 -4
-20 -7 0 -11 7 -7 15 3 10 1 13 -6 8 -8 -5 -10 -2 -6 8 5 12 -1 16 -22 16 -22
0 -25 3 -14 9 8 6 18 7 22 5 4 -3 5 2 2 10 -3 9 -10 16 -16 16 -5 0 -6 -4 -3
-10 3 -5 2 -10 -3 -10 -5 0 -12 9 -15 20 -5 21 -26 23 -40 5 -4 -5 -5 2 -1 18
6 26 -1 33 -29 28 -4 -1 -13 12 -18 29 -9 25 -14 28 -30 20 -22 -13 -27 8 -6
29 6 7 8 12 2 11 -37 -7 -55 1 -55 25 0 22 -4 25 -25 21 -18 -3 -25 0 -25 10
0 8 4 13 9 9 5 -3 13 0 17 6 4 7 3 9 -3 6 -6 -4 -16 -1 -22 7 -7 8 -21 12 -34
8 -18 -4 -20 -3 -12 9 6 8 10 28 9 45 -1 20 3 31 11 31 8 0 12 -3 10 -7 -2 -3
1 -12 6 -20 9 -13 10 -13 6 0 -2 8 3 24 12 34 9 11 11 17 5 13 -6 -3 -11 0
-11 8 0 8 2 13 5 10 3 -2 14 1 26 7 11 7 30 11 41 10 16 -1 15 0 -4 8 -27 12
-18 30 17 33 16 1 18 5 12 17 -6 11 -5 17 3 18 7 0 21 3 32 6 11 2 22 5 25 5
2 1 -1 6 -8 13 -7 7 -12 16 -12 22 0 5 9 -1 20 -14 11 -13 20 -19 20 -14 0 6
-5 15 -12 22 -9 9 -8 12 8 12 10 0 28 7 38 15 23 17 14 20 -14 5 -16 -8 -18
-8 -14 5 4 8 15 15 25 15 10 0 19 5 19 11 0 5 4 8 9 5 5 -3 14 1 21 9 9 10 9
15 1 15 -6 0 -11 -5 -11 -11 0 -5 -4 -7 -10 -4 -5 3 -10 11 -10 16 0 6 4 8 8
5 5 -3 20 1 35 9 15 8 28 9 31 4 2 -5 3 -4 2 3 -2 7 -8 13 -13 13 -22 0 -24
13 -3 18 11 3 20 0 20 -6 0 -6 6 -3 13 8 8 10 19 15 25 12 6 -5 8 0 5 13 -3
12 0 20 7 20 7 0 10 7 6 18 -5 14 -3 13 10 -3 16 -20 16 -20 9 3 -7 23 9 32
18 10 3 -7 6 0 6 17 1 22 4 26 13 17 7 -7 16 -12 22 -12 5 0 -1 9 -14 20 -13
11 -19 20 -14 20 6 0 16 -6 23 -12 10 -11 12 -10 9 1 -2 7 5 15 15 16 24 4 32
13 23 22 -4 4 -11 1 -16 -7 -9 -13 -10 -13 -10 0 1 8 16 22 35 31 21 10 35 12
35 6 0 -6 3 -8 6 -4 12 12 -7 28 -20 18 -9 -8 -13 -7 -13 4 0 8 3 13 6 11 12
-7 46 12 46 25 0 8 5 14 10 14 6 0 10 -5 10 -12 0 -6 3 -14 6 -18 4 -3 6 7 5
22 -1 24 3 28 24 26 l25 -3 -23 13 c-12 7 -20 16 -16 20 4 4 14 1 22 -6 13 -9
14 -9 8 1 -4 7 -2 12 4 12 6 0 8 5 5 10 -3 6 -2 10 4 10 5 0 12 -6 14 -12 4
-10 6 -10 6 -1 1 6 -3 15 -9 18 -15 9 -12 22 5 22 8 0 12 -3 10 -7 -2 -3 1
-12 7 -20 8 -12 9 -12 4 2 -3 10 -1 20 5 23 5 4 7 11 4 16 -8 11 3 29 17 29 6
0 8 -9 5 -20z m1313 5 c11 -13 10 -14 -4 -9 -9 3 -16 10 -16 15 0 13 6 11 20
-6z m2435 -3 c-3 -3 -11 0 -18 7 -9 10 -8 11 6 5 10 -3 15 -9 12 -12z m65 -2
c0 -14 7 -20 24 -20 18 0 23 -5 22 -21 -1 -15 6 -23 19 -25 11 -2 21 -8 23
-14 2 -5 9 -7 15 -3 7 4 6 -1 -2 -10 -7 -9 -10 -18 -5 -18 5 -1 16 -2 24 -3 8
0 15 -10 15 -21 0 -11 7 -21 15 -21 8 -1 20 -2 27 -3 6 0 9 -10 6 -20 -4 -15
1 -20 19 -23 15 -2 24 -11 26 -26 3 -18 9 -23 22 -19 20 5 36 -29 16 -37 -10
-4 29 -10 47 -7 5 1 8 -7 7 -16 -4 -32 0 -36 18 -22 9 7 14 10 10 5 -4 -5 -1
-15 7 -22 8 -8 11 -22 8 -31 -4 -10 -2 -14 4 -10 18 11 43 -3 43 -24 0 -12 7
-19 19 -19 12 0 21 -9 25 -24 4 -18 12 -24 26 -21 16 3 20 -2 20 -21 0 -19 5
-24 24 -24 18 0 23 -5 22 -22 -1 -16 4 -22 15 -20 9 1 22 -5 29 -13 10 -12 10
-15 -1 -15 -19 0 2 -17 26 -22 12 -2 20 -11 20 -23 0 -14 6 -20 22 -19 12 1
22 -1 21 -5 -3 -27 5 -41 22 -41 11 0 20 -4 20 -10 0 -14 0 -17 10 -50 5 -16
5 -28 0 -27 -5 1 -16 -7 -25 -18 -14 -17 -16 -17 -11 -2 3 9 1 17 -4 17 -6 0
-10 -11 -10 -25 0 -18 -5 -25 -20 -25 -13 0 -20 -7 -20 -20 0 -11 -5 -20 -11
-20 -5 0 -7 -6 -3 -12 5 -9 2 -8 -9 1 -10 8 -20 11 -24 7 -4 -3 2 -13 13 -21
16 -13 16 -14 2 -9 -12 4 -18 1 -18 -9 0 -9 -8 -13 -26 -11 -20 2 -23 0 -14
-11 8 -10 6 -15 -8 -20 -14 -4 -19 -12 -16 -28 l5 -22 -10 23 c-13 27 -25 29
-18 2 3 -11 -1 -23 -8 -28 -8 -4 -14 -11 -14 -17 0 -5 -5 -11 -13 -13 -10 -3
-10 -1 -1 5 7 5 9 14 4 22 -6 10 -11 5 -16 -18 -4 -17 -10 -29 -13 -27 -4 2
-16 -2 -27 -10 -10 -8 -13 -14 -7 -14 10 0 10 -3 0 -14 -7 -7 -19 -13 -27 -12
-9 1 -16 -7 -16 -18 0 -11 -8 -20 -18 -22 -27 -4 -34 -14 -17 -24 13 -8 12
-10 -2 -10 -10 0 -18 -6 -18 -12 0 -10 -2 -10 -9 0 -6 11 -10 10 -16 -5 -5
-10 -8 -21 -7 -24 1 -4 -10 -10 -23 -13 -16 -4 -25 -13 -25 -27 0 -11 -3 -18
-8 -15 -11 7 -37 -17 -37 -34 0 -9 -7 -14 -17 -12 -16 2 -35 -19 -37 -43 -1
-5 -9 -10 -19 -10 -11 0 -16 -6 -14 -17 3 -17 -1 -20 -30 -22 -7 -1 -15 -12
-18 -26 -4 -19 -11 -24 -28 -23 -20 3 -21 1 -11 -18 8 -15 8 -19 0 -15 -6 4
-11 3 -11 -2 0 -11 -31 -12 -45 -2 -5 4 -18 6 -28 5 -9 -2 -15 0 -12 5 9 14
-7 41 -21 36 -7 -3 -18 3 -26 11 -11 14 -11 16 3 11 20 -8 46 6 30 16 -6 4
-11 3 -11 -3 0 -6 -12 -4 -27 4 -15 8 -31 11 -36 8 -5 -3 -8 0 -5 7 2 8 10 16
18 18 8 3 10 0 5 -8 -5 -9 -4 -11 4 -6 15 10 3 29 -14 22 -13 -5 -32 28 -27
47 1 4 -3 7 -9 7 -6 0 -9 -6 -6 -13 3 -8 1 -20 -4 -28 -6 -10 -9 -7 -9 14 0
23 -4 27 -27 27 -21 0 -24 3 -13 9 8 6 18 7 22 5 4 -3 8 0 8 6 0 7 -8 9 -20 5
-14 -4 -20 -2 -18 6 2 7 -3 14 -9 15 -7 1 -17 2 -23 3 -5 0 -10 10 -10 21 0
18 -15 25 -42 21 -4 0 -5 7 -3 17 3 19 -29 65 -39 55 -3 -3 2 -11 10 -18 15
-11 15 -12 0 -12 -9 0 -16 3 -17 6 0 3 -3 15 -6 26 -2 11 -5 27 -6 36 -1 8
-10 15 -22 15 -13 -1 -19 4 -17 14 3 12 1 12 -9 3 -6 -6 -18 -9 -26 -6 -10 4
-11 8 -3 13 8 5 7 11 -4 22 -8 9 -12 19 -8 24 4 5 0 3 -9 -4 -20 -15 -29 1
-29 49 0 22 5 29 20 29 11 0 21 5 21 10 1 6 2 16 3 23 0 6 10 12 21 12 13 0
21 8 23 23 3 18 10 22 40 22 28 0 33 3 22 10 -8 5 -10 10 -5 10 19 -1 42 -25
39 -42 -3 -23 16 -35 27 -17 6 10 10 5 15 -19 5 -26 11 -33 25 -29 17 5 24 -7
21 -35 -1 -3 5 -9 13 -11 9 -4 12 0 10 15 -3 11 -2 18 1 15 3 -3 6 -9 6 -14 0
-4 4 -14 10 -20 6 -7 8 -20 4 -28 -3 -9 0 -15 9 -15 8 0 12 8 10 19 -3 15 0
18 13 14 10 -4 11 -8 4 -11 -8 -2 -7 -10 4 -28 9 -13 12 -24 8 -24 -5 0 -2 -4
6 -10 9 -6 17 -5 22 3 5 7 10 -1 14 -21 5 -26 11 -33 25 -29 18 5 25 -9 20
-36 -1 -5 3 -6 9 -2 5 3 10 2 10 -2 0 -5 11 -10 26 -11 18 -1 23 2 18 11 -5 7
-1 6 10 -3 16 -13 18 -12 14 9 -2 19 2 25 22 28 27 4 42 21 33 38 -4 5 -3 7 2
3 9 -9 47 10 41 20 -3 5 -1 14 5 22 7 12 9 11 10 -5 1 -11 1 -24 0 -29 -1 -5
5 -4 13 4 18 14 22 25 6 15 -5 -3 -10 -2 -10 3 0 10 24 33 31 29 2 -1 1 2 -3
8 -10 12 -10 26 0 23 13 -5 72 24 72 34 0 6 -7 5 -15 -2 -8 -7 -15 -10 -15 -6
0 3 0 9 0 14 0 7 5 9 40 11 11 0 26 14 35 31 9 18 21 27 29 24 8 -3 17 0 22 7
4 8 3 10 -4 5 -7 -4 -19 -3 -28 2 -11 6 -13 11 -5 16 6 4 11 1 11 -6 1 -7 9
-3 20 11 11 12 18 26 15 30 -2 4 2 8 10 9 8 1 22 3 30 4 10 1 11 5 5 13 -12
14 3 37 21 33 10 -2 14 10 16 45 1 43 0 47 -22 47 -16 0 -22 5 -21 17 3 22
-15 42 -31 36 -8 -3 -13 3 -13 16 0 16 -6 21 -27 21 -22 0 -25 2 -13 10 13 9
13 10 0 10 -13 0 -13 1 0 10 16 10 14 11 -30 14 -8 1 -16 11 -18 24 -2 14 -10
22 -23 22 -10 0 -20 5 -20 10 -1 6 -2 15 -3 22 0 7 -12 15 -26 18 -16 4 -25
13 -25 25 0 14 -6 19 -22 18 -17 -2 -21 2 -18 22 1 14 -3 25 -9 24 -29 -4 -38
2 -33 21 3 11 0 20 -6 21 -7 1 -23 2 -37 3 -34 2 -53 15 -46 33 3 8 1 11 -5 8
-5 -4 -7 -15 -4 -24 3 -11 0 -18 -9 -18 -9 0 -13 4 -10 9 3 4 -2 5 -10 2 -9
-3 -16 -10 -16 -16 0 -5 -6 -6 -12 -2 -10 6 -10 4 0 -7 18 -20 15 -28 -13 -24
-16 1 -25 -3 -25 -11 0 -8 -7 -11 -17 -8 -17 5 -17 5 0 -6 25 -16 22 -33 -4
-19 -12 6 -19 7 -15 1 3 -5 -5 -13 -19 -16 -14 -4 -25 -12 -25 -18 0 -9 3 -9
12 0 16 16 25 15 25 -2 0 -8 -3 -15 -6 -14 -37 4 -48 -3 -43 -27 2 -14 1 -25
-4 -24 -19 3 -58 -3 -46 -8 15 -6 16 -33 1 -33 -5 0 -7 4 -4 10 4 6 -1 7 -11
3 -13 -5 -15 -3 -9 7 5 9 4 11 -4 6 -9 -6 -9 -11 0 -22 9 -11 8 -14 -5 -14
-10 0 -16 -7 -14 -16 2 -10 -3 -19 -10 -21 -7 -3 -10 1 -6 10 3 8 1 18 -5 22
-6 3 -9 0 -5 -8 3 -8 1 -18 -4 -21 -6 -3 -8 -15 -5 -25 6 -22 -12 -37 -23 -20
-5 8 -3 9 5 4 10 -6 11 -3 2 14 -7 11 -14 21 -17 21 -3 0 -3 -4 0 -9 7 -10
-20 -68 -36 -77 -7 -4 -8 -2 -4 4 4 7 2 12 -3 12 -10 0 -15 -14 -12 -33 1 -5
-4 -5 -11 -1 -19 12 -38 14 -38 3 0 -5 7 -9 15 -9 8 0 15 -4 15 -10 0 -5 -7
-6 -17 -3 -12 5 -14 3 -8 -7 6 -10 4 -12 -9 -7 -14 6 -17 3 -12 -9 6 -14 4
-15 -10 -3 -14 11 -15 10 -12 -6 2 -13 -5 -21 -22 -25 -14 -4 -24 -12 -22 -19
3 -17 -17 -51 -31 -51 -7 0 -6 4 3 10 13 8 12 10 -4 10 -13 0 -17 -5 -13 -19
4 -15 -2 -20 -27 -25 -24 -5 -28 -9 -16 -16 9 -6 17 -5 21 1 4 7 8 5 12 -4 4
-10 0 -14 -11 -12 -9 1 -26 -2 -37 -8 -11 -6 -23 -10 -27 -9 -4 1 -7 -8 -5
-21 2 -17 -3 -22 -22 -22 -21 0 -25 -6 -29 -35 -4 -39 -16 -58 -26 -41 -4 6
-2 11 3 11 6 0 11 5 11 11 0 8 -5 7 -15 -1 -9 -7 -13 -15 -10 -18 2 -3 -3 -11
-13 -19 -9 -8 -11 -11 -4 -8 12 6 12 3 2 -16 -12 -21 -13 -22 -26 -5 -12 18
-13 18 -13 0 -1 -41 -5 -52 -17 -47 -6 2 -15 -1 -19 -6 -3 -6 -12 -8 -18 -4
-9 5 -9 3 0 -8 13 -16 6 -33 -17 -37 -11 -2 -10 2 4 12 18 14 18 15 -2 13 -11
0 -20 -4 -20 -7 2 -18 -3 -30 -10 -26 -4 2 -14 1 -21 -3 -10 -6 -9 -10 4 -14
10 -5 14 -3 9 5 -4 7 -3 8 4 4 17 -10 15 -29 -1 -23 -20 7 -38 -6 -40 -30 0
-11 -7 -20 -14 -20 -6 0 -10 4 -7 9 3 4 0 8 -5 8 -6 0 -11 4 -11 10 0 5 7 7
15 4 8 -4 15 -2 15 3 0 6 -16 9 -35 8 -19 -1 -36 3 -37 9 0 6 -2 18 -2 26 -1
10 -9 14 -24 12 -18 -3 -22 2 -22 22 0 19 -5 26 -19 26 -10 0 -21 9 -24 20 -5
19 3 24 31 21 7 -1 12 9 12 24 0 20 5 25 25 25 14 0 24 3 24 8 -5 28 3 41 21
37 15 -3 20 2 20 20 0 17 6 25 23 27 14 2 21 9 21 21 -2 16 7 21 34 18 7 -1
12 9 12 24 0 20 5 25 27 25 14 0 23 3 20 6 -3 4 -2 15 4 26 6 11 13 17 16 14
10 -10 32 15 26 30 -3 10 2 14 20 14 17 0 24 6 24 18 0 42 3 48 13 32 7 -11
10 -11 10 -2 0 7 5 10 12 6 6 -4 8 -3 4 4 -8 14 21 43 38 36 9 -4 13 3 11 21
-3 21 0 25 18 23 15 -2 22 4 27 22 4 16 13 25 25 25 11 0 21 6 21 13 1 6 2 17
3 22 0 6 8 10 17 8 11 -2 21 9 30 32 7 19 13 28 14 20 1 -12 3 -12 7 -1 5 11
7 11 14 0 6 -10 8 -7 7 11 -2 19 2 25 17 25 11 0 21 6 21 13 1 6 2 16 3 21 0
5 11 11 24 13 12 2 23 9 23 16 1 6 2 17 3 22 0 6 10 10 20 10 13 0 21 8 23 23
2 14 10 22 23 22 13 0 21 8 23 23 2 14 10 22 24 22 17 0 18 2 8 15 -11 13 -10
14 4 9 11 -4 16 -2 14 7 -2 9 5 13 20 12 20 -3 21 -1 11 18 -8 15 -8 19 0 15
6 -4 11 -2 11 4 0 6 5 8 10 5 6 -3 10 2 10 12 0 14 2 15 9 4 7 -11 10 -9 13
10 2 18 9 24 25 23 13 -1 21 1 19 5 -2 3 0 16 5 28 6 16 14 20 31 16 16 -3 19
-2 10 4 -10 8 -8 15 8 34 12 13 19 18 15 12 -4 -9 -1 -11 9 -7 9 3 16 15 16
25 0 17 17 25 43 20 5 -1 6 8 2 19 -5 16 -2 20 19 20 19 0 26 -5 26 -20z
m-234 -17 c-10 -10 -19 5 -10 18 6 11 8 11 12 0 2 -7 1 -15 -2 -18z m-2185
-76 c-10 -9 -11 -8 -5 6 3 10 9 15 12 12 3 -3 0 -11 -7 -18z m1508 -61 c0 -6
-3 -5 -6 2 -2 6 -8 10 -12 8 -4 -3 -7 4 -7 15 0 19 1 19 13 3 7 -10 13 -23 12
-28z m-3204 16 c-3 -3 -11 0 -18 7 -9 10 -8 11 6 5 10 -3 15 -9 12 -12z m3925
12 c0 -8 -19 -13 -24 -6 -3 5 1 9 9 9 8 0 15 -2 15 -3z m-3970 -58 c0 -2 -7
-7 -16 -10 -8 -3 -12 -2 -9 4 6 10 25 14 25 6z m1525 -6 c3 -6 -1 -7 -9 -4
-18 7 -21 14 -7 14 6 0 13 -4 16 -10z m-129 -32 c3 -4 -1 -5 -10 -4 -8 1 -18
5 -22 8 -3 4 1 5 10 4 8 -1 18 -5 22 -8z m1934 -12 c0 -7 -6 -13 -14 -13 -11
0 -13 9 -7 35 2 9 21 -11 21 -22z m-1760 10 c0 -2 -7 -7 -16 -10 -8 -3 -12 -2
-9 4 6 10 25 14 25 6z m1580 0 c0 -3 -4 -8 -10 -11 -5 -3 -10 -1 -10 4 0 6 5
11 10 11 6 0 10 -2 10 -4z m-460 -42 c0 -3 -4 -2 -10 1 -5 3 -10 -1 -10 -10 0
-12 6 -15 20 -10 18 6 25 -3 21 -27 0 -5 4 -8 10 -8 5 0 7 -4 4 -10 -3 -5 0
-10 8 -10 10 0 14 7 11 23 -4 20 -3 20 7 -3 14 -29 18 -60 9 -60 -3 0 -15 -7
-26 -16 -18 -14 -18 -15 4 -4 12 6 22 7 22 3 0 -11 -20 -40 -20 -30 0 4 -9 3
-20 -3 -10 -6 -18 -16 -16 -23 1 -6 1 -9 -1 -5 -5 9 -33 -16 -33 -30 0 -5 -11
-15 -25 -22 -14 -7 -25 -22 -25 -32 0 -10 -7 -18 -16 -18 -14 0 -14 3 -4 15 7
9 10 18 8 21 -3 3 -12 -9 -19 -25 -10 -23 -19 -30 -34 -26 -11 3 -14 2 -7 -1
6 -3 9 -11 6 -16 -4 -6 -2 -8 4 -4 6 3 14 1 18 -5 5 -8 -1 -10 -20 -7 -25 5
-32 -4 -27 -34 1 -11 -17 -10 -23 1 -4 5 -1 12 4 14 6 3 5 4 -2 3 -7 -2 -14
-8 -14 -14 -1 -7 -2 -17 -3 -23 0 -5 -5 -7 -11 -4 -5 3 -10 1 -10 -4 0 -6 5
-11 11 -11 5 0 7 -5 4 -10 -5 -8 -12 -7 -23 2 -12 10 -14 10 -8 1 7 -12 -5
-18 -28 -14 -5 1 -3 -5 4 -14 15 -18 10 -25 -17 -29 -11 -2 -18 -11 -17 -25 1
-14 -4 -21 -18 -21 -11 0 -22 -10 -28 -25 -5 -14 -12 -25 -15 -25 -4 0 -3 5 0
11 4 6 -2 5 -14 -3 -11 -7 -20 -20 -18 -28 1 -9 -6 -15 -18 -15 -13 0 -21 -8
-23 -22 -2 -14 -11 -23 -25 -25 -14 -2 -22 -10 -22 -23 0 -11 -6 -21 -13 -21
-6 -1 -16 -2 -21 -3 -5 0 -11 -11 -13 -23 -2 -16 -9 -22 -20 -20 -17 3 -22 -8
-19 -35 1 -8 -9 -13 -24 -13 -20 0 -25 -5 -25 -26 0 -15 -4 -23 -10 -19 -15 9
-40 -14 -33 -31 3 -8 0 -14 -7 -14 -6 0 -8 5 -5 11 4 6 -2 5 -14 -3 -12 -7
-21 -23 -21 -36 0 -13 -6 -22 -12 -21 -28 3 -39 -2 -36 -18 3 -17 -45 -37 -66
-27 -6 3 -3 -1 7 -9 23 -19 22 -27 -4 -27 -11 0 -17 5 -14 10 3 6 1 10 -4 10
-6 0 -10 6 -8 13 1 7 -7 11 -23 9 -21 -4 -22 -2 -11 12 14 17 6 24 -36 30 -11
2 -17 10 -15 22 1 11 -7 25 -19 32 -12 8 -18 9 -14 3 3 -6 1 -11 -4 -11 -17 0
-13 36 5 50 8 8 14 9 12 4 -2 -5 2 -10 7 -11 10 -3 11 0 14 32 0 8 10 15 21
15 13 0 20 7 20 20 0 13 7 20 19 20 20 0 35 25 25 42 -5 7 2 9 20 6 23 -5 26
-2 26 22 0 23 4 27 20 23 14 -4 21 1 26 21 4 17 13 26 25 26 12 0 19 7 19 19
0 13 8 21 23 23 14 2 23 11 25 26 3 18 8 23 23 19 18 -5 24 7 20 40 -1 7 9 10
25 8 22 -2 25 1 21 21 -3 20 0 24 19 24 16 0 24 7 26 23 2 14 10 22 23 22 13
0 21 8 23 23 2 13 10 22 22 22 11 0 20 10 24 26 5 19 11 24 26 19 16 -5 20 -2
20 19 0 21 5 26 26 26 21 0 25 4 21 19 -6 23 15 35 32 18 7 -7 12 -7 11 -2 -2
6 -2 21 -1 34 1 18 5 22 21 18 11 -3 20 -1 20 4 0 18 2 24 12 36 5 6 16 9 24
6 10 -4 14 3 14 21 0 16 5 26 13 25 26 -3 35 2 33 19 -2 10 5 19 18 22 12 3
22 15 24 27 3 17 11 23 40 25 35 3 72 -6 72 -18z m555 -44 c3 -5 1 -10 -4 -10
-6 0 -11 5 -11 10 0 6 2 10 4 10 3 0 8 -4 11 -10z m371 -7 c-3 -17 -26 -32
-26 -16 0 8 20 33 26 33 1 0 1 -8 0 -17z m-3644 -45 c-7 -7 -12 -8 -12 -2 0
14 12 26 19 19 2 -3 -1 -11 -7 -17z m1562 6 c8 -22 8 -24 -8 -24 -9 0 -14 9
-13 20 2 24 13 26 21 4z m484 -9 c-3 -3 -9 2 -12 12 -6 14 -5 15 5 6 7 -7 10
-15 7 -18z m-490 -50 c-3 -3 -9 2 -12 12 -6 14 -5 15 5 6 7 -7 10 -15 7 -18z
m1982 11 c0 -3 -4 -8 -10 -11 -5 -3 -10 -1 -10 4 0 6 5 11 10 11 6 0 10 -2 10
-4z m133 -41 c-3 -9 -8 -14 -10 -11 -3 3 -2 9 2 15 9 16 15 13 8 -4z m-593
-16 c0 -5 -4 -9 -8 -9 -5 0 -9 7 -9 15 0 8 4 12 9 9 4 -3 8 -9 8 -15z m-2640
-40 c0 -13 7 -19 21 -19 16 0 20 -5 16 -20 -5 -18 9 -26 29 -17 9 4 26 -32 19
-43 -4 -6 7 -10 25 -10 19 0 29 -4 25 -10 -4 -6 -12 -8 -18 -4 -7 3 -4 -1 6
-9 9 -8 17 -19 17 -25 0 -5 9 -8 20 -5 15 4 20 0 20 -16 0 -14 6 -21 20 -21
11 0 20 -3 21 -7 1 -5 2 -26 2 -48 2 -36 0 -40 -20 -37 -19 3 -23 -2 -23 -23
0 -15 -5 -25 -12 -24 -31 4 -39 -2 -33 -21 5 -16 2 -20 -19 -20 -21 0 -26 -5
-26 -25 0 -14 -3 -24 -7 -24 -29 5 -42 -3 -38 -21 4 -18 -9 -26 -37 -21 -5 0
-8 -10 -8 -22 0 -21 -4 -24 -44 -23 -33 1 -43 5 -41 16 1 8 -1 20 -5 25 -5 6
-9 15 -10 20 -3 14 -50 56 -50 45 0 -5 11 -17 25 -26 23 -15 26 -34 4 -34 -6
0 -8 4 -5 9 7 11 -38 53 -47 44 -4 -3 -7 -1 -7 5 0 7 5 12 10 12 6 0 10 5 10
10 0 6 -3 9 -7 9 -20 -3 -34 2 -28 11 3 6 2 10 -4 10 -5 0 -12 -6 -14 -12 -3
-7 -6 -1 -6 14 -1 30 -62 85 -81 73 -14 -9 -13 8 3 24 10 10 8 11 -8 6 -18 -6
-18 -5 -2 5 9 6 22 8 28 4 7 -4 9 0 5 13 -3 11 1 27 10 39 8 10 13 14 10 7 -4
-6 0 -10 9 -9 18 3 32 16 17 16 -6 0 -9 7 -6 15 4 8 17 15 30 15 25 0 34 24
12 33 -8 4 -6 6 5 7 9 2 21 3 26 4 5 0 13 5 18 9 8 9 10 14 12 44 1 15 3 15
16 -3 11 -15 15 -16 16 -4 1 8 1 19 0 23 -1 4 6 10 14 13 8 3 12 10 9 15 -3 5
0 9 5 9 6 0 11 -4 11 -10 0 -5 7 -7 16 -3 13 5 13 7 2 14 -11 8 -11 11 1 18
20 13 41 2 41 -20z m1263 12 c-15 -11 -13 -31 3 -31 9 0 12 -5 8 -12 -6 -10
-4 -10 8 0 14 11 17 8 26 -17 6 -16 9 -32 6 -35 -2 -3 2 -2 8 4 15 13 31 13
23 1 -3 -5 1 -16 9 -24 8 -8 13 -17 11 -21 -3 -3 1 -2 7 4 17 14 25 13 25 -5
0 -8 -3 -12 -7 -10 -3 2 -12 -1 -20 -7 -12 -8 -12 -9 2 -4 10 3 20 1 23 -4 4
-6 15 -10 26 -10 11 0 19 -7 19 -17 0 -15 -2 -16 -10 -3 -7 11 -10 11 -10 2 0
-8 -5 -10 -12 -6 -7 4 -9 3 -5 -1 4 -5 20 -11 35 -13 15 -2 29 -8 31 -14 2 -7
6 -6 11 1 4 7 8 -9 8 -35 2 -42 0 -46 -18 -41 -17 4 -22 0 -27 -24 -5 -25 -8
-27 -21 -17 -12 10 -14 10 -8 1 4 -8 2 -13 -7 -13 -10 0 -13 -7 -10 -20 4 -16
0 -20 -22 -20 -20 0 -26 -4 -21 -15 5 -15 -26 -39 -38 -28 -3 3 -6 -6 -6 -20
0 -22 -5 -27 -25 -27 -20 0 -25 -5 -25 -26 0 -24 -2 -25 -17 -13 -11 10 -14
10 -9 2 4 -7 2 -13 -3 -13 -6 0 -11 5 -11 10 0 7 -6 7 -19 1 -23 -13 -35 -3
-20 16 9 10 5 14 -20 19 -24 5 -31 12 -31 30 0 19 -5 24 -24 24 -19 0 -24 4
-21 20 3 16 -2 20 -21 20 -19 0 -24 5 -24 26 0 14 -4 23 -10 19 -5 -3 -10 0
-10 7 0 9 -3 9 -10 -2 -8 -13 -10 -12 -11 5 -1 11 -1 23 0 28 0 4 -10 7 -25 7
-23 0 -25 3 -21 42 2 23 9 44 15 46 7 2 9 -7 6 -25 -3 -20 -2 -24 5 -13 5 8 8
17 5 21 -2 4 0 10 6 14 5 3 10 15 10 26 0 19 1 19 16 5 8 -9 18 -16 22 -16 3
0 1 5 -6 12 -16 16 -15 29 1 26 7 -2 12 6 11 20 -1 12 3 22 7 22 5 0 9 -5 9
-11 0 -8 5 -8 15 1 8 7 15 21 15 31 0 11 5 19 11 19 5 0 8 -4 5 -8 -3 -5 1 -9
9 -9 8 0 13 2 11 4 -2 2 -1 16 3 30 6 24 20 32 58 35 7 1 10 5 7 10 -3 4 -1 8
5 8 5 0 12 -5 14 -10 3 -6 4 -5 3 2 -2 7 -12 13 -24 12 -12 0 -19 3 -16 8 8
12 38 10 53 -4 11 -11 13 -10 8 3 -4 13 -1 16 15 11 11 -2 16 -8 11 -11z
m2485 -9 c3 -16 10 -22 29 -22 20 0 24 -4 20 -19 -5 -20 17 -36 34 -25 5 3 9
-6 9 -20 0 -21 5 -26 26 -26 23 0 26 -4 22 -25 -5 -22 -2 -24 18 -19 24 6 29
-1 25 -33 -1 -8 9 -13 23 -13 21 0 24 -5 24 -34 0 -19 3 -39 7 -45 3 -6 0 -12
-7 -12 -7 -1 -20 -2 -28 -3 -8 0 -16 -11 -18 -23 -2 -17 -10 -23 -27 -23 -18
0 -22 -4 -18 -20 4 -16 0 -20 -21 -20 -16 0 -26 -5 -25 -12 4 -31 -2 -40 -21
-35 -18 5 -26 -7 -21 -35 0 -5 -10 -8 -24 -8 -14 0 -24 -3 -24 -7 4 -27 -3
-39 -26 -39 -14 0 -25 4 -25 9 0 5 -7 7 -15 4 -8 -4 -17 -2 -20 3 -4 6 2 10
12 10 12 1 8 5 -12 14 -16 7 -34 11 -39 8 -5 -3 -6 -1 -3 4 3 5 -2 27 -12 49
-11 26 -20 35 -25 27 -4 -7 -2 -12 3 -12 6 0 11 -6 11 -13 0 -8 -6 -14 -14
-14 -8 0 -12 6 -9 12 6 16 -26 47 -39 39 -6 -4 -9 -1 -6 6 2 8 10 16 18 18 8
3 10 0 5 -8 -5 -9 -4 -11 4 -6 15 10 3 29 -15 22 -7 -3 -16 -1 -19 5 -4 5 -10
7 -14 5 -4 -3 -13 -1 -20 3 -10 6 -9 10 4 14 10 5 14 3 9 -5 -4 -7 -3 -8 4 -4
20 12 13 28 -8 21 -14 -4 -20 -2 -18 7 2 7 -4 12 -13 10 -9 -1 -22 5 -29 13
-9 10 -9 15 -1 15 6 0 11 5 11 11 0 5 -4 7 -10 4 -16 -10 -11 1 7 16 10 8 14
9 10 2 -4 -6 -3 -14 2 -17 16 -10 24 14 10 30 -7 8 -8 14 -3 13 5 -1 20 -1 34
1 23 1 23 2 5 10 -19 8 -19 9 2 9 17 1 21 5 16 19 -3 9 -3 14 2 10 4 -4 14 -3
22 3 7 6 13 8 14 3 1 -5 4 2 8 16 5 15 14 24 24 24 10 -1 17 3 16 10 -3 21 1
36 9 35 26 -4 42 3 42 20 0 13 8 21 23 23 15 2 22 9 21 24 -2 29 40 25 44 -4z
m-2320 -7 c-3 -3 -9 2 -12 12 -6 14 -5 15 5 6 7 -7 10 -15 7 -18z m1065 19
c-13 -6 -6 -34 9 -34 5 0 7 4 4 8 -2 4 0 14 6 22 8 13 9 13 5 0 -3 -9 1 -24 9
-34 7 -11 11 -24 7 -29 -4 -6 0 -8 9 -4 10 3 25 -5 39 -20 13 -15 18 -23 12
-19 -7 4 -13 2 -13 -5 0 -6 8 -9 19 -6 10 2 25 1 32 -4 10 -6 11 -9 2 -9 -21
0 -15 -17 13 -35 15 -9 23 -11 19 -4 -5 8 -4 10 4 5 6 -4 9 -16 6 -25 -3 -11
0 -18 9 -18 9 0 13 5 10 11 -3 6 1 3 9 -6 8 -10 18 -14 22 -10 4 4 3 -2 -3
-14 -6 -12 -9 -33 -7 -47 5 -26 -16 -43 -38 -30 -7 3 -9 2 -4 -2 4 -5 1 -18
-6 -29 -8 -12 -13 -29 -11 -38 1 -11 -3 -15 -13 -11 -9 4 -11 8 -4 12 6 4 7
12 1 21 -7 12 -11 8 -16 -16 -4 -21 -12 -31 -22 -30 -10 1 -18 -8 -20 -21 -2
-16 -10 -23 -26 -23 -13 0 -23 -6 -23 -15 0 -12 4 -12 16 -3 14 11 14 10 1 -5
-8 -9 -26 -18 -40 -20 -24 -4 -42 -27 -20 -27 6 0 8 5 4 13 -5 8 -2 8 9 -2 20
-16 21 -17 5 -19 -7 -1 -25 -3 -40 -6 -24 -4 -28 -1 -28 20 0 13 -3 23 -7 23
-22 -4 -43 2 -39 10 10 15 -5 40 -19 35 -14 -6 -39 29 -28 40 3 3 -5 6 -20 6
-20 0 -25 4 -22 20 4 18 -9 26 -37 21 -8 -1 -12 14 -9 37 2 11 -27 18 -54 12
-5 -1 -5 4 2 11 6 6 9 18 6 25 -3 9 2 14 13 14 16 0 17 2 4 10 -12 7 -12 12
-2 22 9 9 12 9 12 0 0 -7 5 -12 11 -12 5 0 7 5 4 10 -3 6 -1 11 4 11 6 1 15 2
20 3 5 0 13 5 18 10 5 5 3 6 -4 2 -9 -5 -13 0 -13 13 0 14 5 19 15 15 11 -5
15 1 15 22 0 23 2 26 10 14 7 -11 10 -11 10 -2 0 7 4 11 8 8 4 -2 14 -1 22 5
10 6 11 9 3 9 -26 0 -12 28 16 33 24 5 28 10 24 27 -4 15 -1 20 13 20 16 0 17
-2 4 -10 -11 -7 -11 -10 -2 -10 8 0 10 -5 6 -12 -4 -7 -3 -10 1 -5 5 4 10 18
12 30 6 40 12 47 40 46 15 0 23 -3 16 -5z m72 -52 c-3 -3 -11 0 -18 7 -9 10
-8 11 6 5 10 -3 15 -9 12 -12z m175 -19 c0 -13 -3 -13 -15 -3 -8 7 -15 16 -15
21 0 5 7 6 15 3 8 -4 15 -13 15 -21z m907 21 c-3 -3 -12 -4 -19 -1 -8 3 -5 6
6 6 11 1 17 -2 13 -5z m-87 -78 c0 -2 -8 -10 -17 -17 -16 -13 -17 -12 -4 4 13
16 21 21 21 13z m-3755 -24 c-3 -3 -11 0 -18 7 -9 10 -8 11 6 5 10 -3 15 -9
12 -12z m3255 8 c0 -5 -4 -10 -10 -10 -5 0 -10 5 -10 10 0 6 5 10 10 10 6 0
10 -4 10 -10z m-793 -52 c-3 -8 -6 -5 -6 6 -1 11 2 17 5 13 3 -3 4 -12 1 -19z
m1746 -93 c-3 -9 -8 -14 -10 -11 -3 3 -2 9 2 15 9 16 15 13 8 -4z m502 -3 c-3
-3 -11 0 -18 7 -9 10 -8 11 6 5 10 -3 15 -9 12 -12z m-1315 -32 c0 -5 -4 -10
-10 -10 -5 0 -10 5 -10 10 0 6 5 10 10 10 6 0 10 -4 10 -10z m-3441 -14 c10
-12 8 -13 -8 -9 -12 3 -18 9 -15 14 7 12 10 11 23 -5z m1101 -32 c0 -9 -5 -12
-12 -8 -7 4 -8 3 -4 -4 4 -7 18 -12 32 -12 22 0 28 -8 25 -36 -1 -6 9 -10 21
-10 13 1 23 -5 24 -11 1 -7 2 -17 3 -23 0 -5 9 -10 19 -10 27 0 34 -11 19 -28
-9 -13 -9 -14 1 -8 6 4 12 2 12 -3 0 -6 9 -11 20 -11 13 0 20 -7 20 -19 0 -13
8 -21 23 -23 12 -2 23 -9 23 -15 1 -7 2 -18 3 -24 0 -6 10 -9 21 -6 17 4 20 0
20 -23 0 -23 4 -28 19 -25 11 2 22 -3 25 -11 4 -10 2 -13 -7 -8 -8 5 -7 2 2
-9 7 -9 22 -17 32 -17 11 0 19 -9 21 -22 2 -17 9 -22 25 -20 18 2 21 -1 18
-18 -2 -11 0 -18 6 -15 5 4 9 1 9 -4 0 -6 6 -11 14 -11 7 0 16 -9 19 -20 3
-12 14 -20 27 -20 11 0 20 -6 19 -12 -3 -28 2 -39 18 -36 12 2 19 -5 23 -22 3
-17 12 -25 25 -25 13 0 20 -7 20 -20 0 -13 8 -21 23 -23 18 -3 23 -8 19 -23
-3 -10 -2 -19 1 -20 47 -5 63 -16 42 -29 -12 -7 -7 -11 18 -16 25 -5 32 -11
32 -30 0 -13 3 -23 8 -23 22 4 42 -2 37 -11 -9 -15 14 -40 30 -34 8 4 15 -3
17 -18 2 -15 10 -23 22 -23 16 0 20 -9 23 -47 2 -25 -1 -49 -7 -53 -5 -3 -10
-2 -10 4 0 6 -7 8 -16 4 -8 -3 -13 -11 -10 -18 6 -16 -31 -48 -38 -32 -2 7 -5
0 -5 -15 -1 -23 -5 -27 -31 -26 -16 1 -30 5 -30 9 0 5 -7 6 -15 3 -13 -6 -20
6 -16 29 1 7 -2 8 -31 11 -7 0 -14 11 -16 24 -2 14 -9 22 -16 19 -7 -3 -19 -1
-27 4 -9 6 -10 9 -2 9 7 0 10 7 7 15 -4 8 -16 15 -29 15 -17 0 -22 5 -21 23 1
13 -4 21 -11 20 -7 -2 -13 3 -13 10 0 8 -4 7 -10 -3 -8 -12 -10 -9 -10 12 0
20 -6 27 -22 30 -15 2 -24 11 -26 26 -2 14 -10 22 -22 22 -13 0 -18 6 -15 20
2 11 1 19 -3 19 -35 -5 -52 3 -52 25 0 18 -5 23 -22 22 -13 0 -23 5 -24 12 -1
6 -2 17 -3 22 0 6 -10 10 -20 10 -13 0 -21 8 -23 23 -2 12 -9 23 -15 23 -7 1
-17 2 -23 3 -5 0 -10 12 -10 25 0 19 -4 23 -20 19 -16 -4 -20 0 -20 21 0 21
-5 26 -24 26 -19 0 -23 4 -19 20 5 18 -5 25 -30 21 -4 -1 -12 10 -17 24 -6 16
-17 25 -31 25 -16 0 -20 5 -16 20 4 16 0 20 -19 20 -19 0 -24 5 -24 25 0 14
-3 24 -7 24 -30 -5 -43 3 -43 25 0 19 -4 23 -20 19 -16 -4 -20 0 -20 21 0 16
-5 26 -12 25 -30 -4 -38 2 -38 27 0 21 -4 24 -20 19 -16 -5 -20 -2 -20 19 0
14 5 26 11 26 6 0 8 -7 5 -16 -3 -9 7 -3 24 13 30 28 42 45 17 24 -10 -8 -14
-7 -14 4 0 9 10 15 23 15 16 0 24 7 26 23 2 13 10 22 20 22 10 0 23 6 30 14
10 10 10 12 1 7 -9 -5 -11 -2 -7 8 8 21 44 21 44 0z m1260 -4 c0 -7 -13 -7
-38 -1 -2 1 -1 5 3 11 6 10 35 2 35 -10z m8 -19 c8 -1 11 -10 7 -28 -5 -24 -4
-25 4 -7 12 27 28 38 28 19 0 -8 -4 -12 -9 -9 -14 9 -9 -7 8 -23 8 -9 13 -21
11 -28 -3 -6 1 -12 8 -12 10 0 11 5 4 19 -7 12 -6 18 2 18 6 0 13 -9 16 -20 3
-11 10 -20 17 -20 6 0 4 -5 -4 -10 -13 -8 -12 -10 3 -10 9 0 17 5 17 11 0 5 4
8 9 4 6 -3 8 -14 6 -25 -2 -11 1 -20 6 -20 6 0 8 -4 5 -8 -2 -4 -1 -14 3 -21
6 -10 10 -9 14 4 5 10 3 14 -5 9 -7 -4 -8 -3 -4 4 12 21 26 13 26 -14 0 -20 4
-25 16 -20 14 5 15 4 4 -9 -17 -21 -5 -19 16 3 17 16 17 16 11 0 -7 -20 19
-52 35 -42 5 4 5 -4 -2 -16 -8 -15 -8 -20 -1 -16 6 4 11 3 11 -1 0 -5 12 -14
28 -20 l27 -12 -30 5 c-16 2 -24 1 -17 -2 6 -3 10 -9 7 -14 -2 -4 5 -7 18 -6
12 0 22 -5 23 -11 1 -7 2 -17 3 -23 0 -5 8 -7 16 -4 8 4 17 -1 21 -10 4 -11
11 -13 23 -6 13 6 18 5 18 -5 0 -8 -4 -12 -9 -9 -4 3 -8 1 -8 -5 0 -6 11 -13
25 -17 14 -3 25 -10 25 -16 0 -5 5 -6 12 -2 7 4 8 3 4 -5 -6 -9 -11 -9 -22 0
-9 7 -14 8 -14 1 0 -11 34 -26 59 -27 8 0 16 -6 19 -14 3 -10 0 -12 -11 -8 -9
3 -19 1 -23 -5 -4 -7 -3 -8 4 -4 7 4 12 3 12 -2 0 -5 7 -9 15 -10 8 -1 22 -3
29 -4 8 -1 15 -4 14 -7 -2 -23 4 -41 11 -36 5 3 12 1 16 -5 4 -6 11 -8 16 -5
5 4 9 -3 9 -14 0 -14 6 -21 19 -21 11 0 23 -4 26 -10 3 -5 1 -10 -5 -10 -7 0
-5 -6 4 -15 8 -9 21 -14 28 -13 8 2 13 -6 12 -19 0 -19 5 -23 28 -23 15 0 27
-3 27 -7 -4 -25 3 -41 18 -39 12 0 19 -7 21 -21 3 -17 10 -23 29 -23 19 0 23
-3 15 -13 -8 -9 -5 -19 10 -37 11 -14 17 -20 14 -14 -3 7 1 14 9 18 11 4 15
-2 15 -19 0 -14 5 -25 11 -25 5 0 7 -6 3 -12 -6 -10 -4 -10 7 0 14 13 30 16
28 5 -3 -20 2 -43 9 -42 19 3 33 -2 27 -10 -3 -5 -1 -12 5 -16 6 -4 8 -10 5
-14 -2 -5 7 -7 21 -5 14 1 24 -3 23 -9 -3 -25 1 -38 11 -32 6 3 10 1 10 -5 0
-6 5 -8 10 -5 6 3 10 -3 10 -14 0 -16 6 -21 26 -21 21 0 25 -4 21 -19 -2 -10
-1 -25 4 -32 6 -10 9 -10 9 -2 0 7 7 10 15 7 8 -4 15 -18 14 -33 0 -14 -3 -21
-5 -14 -9 20 -34 2 -34 -23 0 -17 -6 -24 -20 -24 -11 0 -21 -4 -21 -10 -1 -5
-3 -14 -4 -20 -1 -5 -3 -16 -4 -22 -1 -8 -4 -9 -9 -3 -14 20 -32 15 -32 -9 0
-14 -5 -28 -12 -32 -7 -5 -8 -3 -3 5 6 10 3 11 -13 2 -13 -7 -19 -17 -16 -26
4 -8 1 -15 -6 -15 -6 0 -8 -6 -4 -12 6 -10 4 -10 -7 0 -20 18 -34 15 -18 -5
12 -14 12 -16 0 -8 -11 6 -13 4 -8 -9 4 -10 3 -15 -3 -11 -6 3 -10 0 -10 -7 0
-11 -2 -10 -9 0 -6 11 -10 10 -16 -5 -5 -10 -8 -21 -7 -24 1 -4 -9 -10 -23
-13 -14 -4 -25 -15 -27 -29 -2 -14 -10 -22 -23 -22 -12 0 -20 -7 -20 -16 0 -9
-8 -27 -18 -40 -13 -18 -15 -19 -8 -3 8 16 7 21 -5 21 -12 0 -19 -17 -15 -39
0 -5 -10 -8 -24 -8 -15 0 -25 -5 -24 -12 3 -28 -2 -36 -21 -31 -19 5 -25 -4
-21 -35 1 -7 -4 -12 -11 -11 -28 3 -37 -2 -40 -24 -2 -14 -10 -22 -23 -22 -15
0 -19 -7 -18 -23 2 -17 -2 -22 -22 -22 -20 0 -25 -5 -25 -24 0 -19 -4 -23 -19
-19 -15 4 -20 -1 -23 -19 -2 -15 -11 -24 -25 -26 -14 -2 -23 -11 -25 -25 -2
-14 -10 -22 -23 -22 -13 0 -20 -7 -20 -19 0 -11 -6 -21 -14 -24 -10 -3 -11 0
-5 9 6 11 5 11 -10 0 -9 -8 -16 -10 -15 -5 5 27 -3 44 -20 44 -13 0 -21 8 -23
23 -2 14 -10 22 -23 22 -13 0 -21 8 -23 23 -2 13 -10 22 -22 22 -21 0 -34 26
-17 34 11 4 -27 10 -45 7 -5 0 -8 10 -8 24 0 20 -5 25 -27 25 -20 0 -24 3 -16
11 14 14 -5 39 -24 32 -7 -3 -15 6 -19 21 -3 15 -14 26 -27 28 -14 2 -22 10
-22 23 0 11 -6 19 -12 18 -7 -2 -13 3 -13 10 0 8 -4 7 -10 -3 -8 -12 -10 -9
-10 13 0 15 -4 28 -10 28 -5 1 -14 3 -20 4 -5 1 -13 3 -17 4 -5 1 1 9 12 18
16 12 16 14 3 10 -10 -3 -20 -2 -24 4 -3 6 -12 8 -20 5 -10 -4 -14 2 -14 19 0
18 -5 25 -19 25 -11 0 -21 9 -24 21 -5 18 -2 20 19 16 22 -4 25 -1 22 22 -2
20 2 27 19 29 14 2 23 11 25 25 2 14 10 22 23 22 13 0 21 8 23 23 5 30 47 27
47 -3 0 -13 6 -19 16 -17 11 1 21 -8 27 -27 9 -24 15 -28 33 -24 14 4 20 2 16
-5 -12 -18 4 -44 24 -39 15 4 19 0 19 -19 0 -18 6 -24 21 -24 11 0 17 -5 14
-10 -3 -5 -1 -10 5 -10 7 0 10 -6 7 -14 -4 -9 2 -13 16 -12 16 1 23 -6 25 -21
2 -13 8 -24 13 -24 5 -1 15 -2 22 -3 6 0 12 -10 12 -20 0 -11 8 -20 20 -22 11
-2 21 -8 23 -13 2 -6 8 -11 13 -11 6 0 8 4 5 9 -3 5 0 9 7 8 58 -2 74 4 73 25
-1 18 5 24 25 26 22 3 26 7 21 24 -3 12 -1 19 4 15 14 -8 35 7 38 29 2 10 8
20 14 20 7 1 17 2 22 3 6 0 10 11 10 22 0 16 5 20 20 16 19 -5 24 4 23 41 -1
8 8 12 21 10 15 -2 22 3 24 20 2 14 10 22 23 22 18 0 23 10 20 36 -1 6 5 11
14 11 8 0 11 -5 8 -11 -4 -6 1 -5 10 3 9 7 17 22 17 32 0 13 7 19 24 19 23 0
25 4 22 36 -3 29 -1 34 13 29 9 -3 0 8 -19 26 -30 28 -31 31 -10 24 23 -7 24
-6 11 9 -8 9 -20 15 -28 12 -8 -3 -13 2 -13 14 0 10 -5 22 -12 26 -7 5 -9 2
-4 -7 4 -8 0 -5 -8 5 -9 11 -16 16 -16 12 0 -4 -7 -1 -15 8 -17 17 -20 30 -5
21 6 -3 10 -1 10 6 0 6 -8 9 -17 7 -10 -2 -26 4 -35 14 -17 16 -17 18 -1 18
23 0 12 9 -18 13 -15 3 -24 11 -24 23 0 12 -8 20 -23 22 -18 3 -23 8 -19 23 6
24 -8 25 -23 2 -9 -15 -10 -14 -4 6 4 16 3 21 -5 17 -7 -5 -11 2 -11 17 0 19
-7 26 -32 32 -18 5 -39 8 -45 8 -7 0 -10 4 -7 9 3 5 13 7 21 4 9 -4 13 -1 11
6 -3 7 -11 13 -19 13 -8 0 -15 10 -17 23 -3 16 -10 22 -28 22 -17 0 -23 4 -18
12 5 8 2 9 -9 5 -10 -3 -17 -2 -17 3 0 6 5 10 10 10 6 0 10 5 10 10 0 11 -21
10 -30 -1 -3 -4 -11 -1 -18 7 -7 8 -8 14 -2 14 20 0 10 21 -16 30 -14 6 -23
14 -20 19 3 5 -3 11 -14 14 -11 3 -24 17 -30 31 -6 16 -17 26 -30 26 -15 0
-20 7 -20 25 0 14 -3 24 -7 24 -22 -4 -33 3 -33 20 0 13 -8 21 -22 23 -15 2
-23 10 -23 23 0 13 -8 21 -22 23 -15 2 -23 10 -23 22 0 12 -8 20 -22 22 -13 2
-24 9 -24 16 -1 6 -2 16 -3 21 0 6 -10 8 -21 6 -15 -3 -20 2 -20 20 0 17 -6
25 -22 27 -15 2 -23 10 -23 23 0 13 -8 21 -22 23 -14 2 -23 11 -25 25 -2 14
-10 22 -22 22 -28 0 -28 31 0 44 13 6 24 17 24 26 0 8 7 16 15 16 30 3 34 4
47 19 11 12 11 12 -4 1 -10 -7 -18 -10 -18 -5 0 12 20 42 20 31 0 -4 8 -4 17
1 9 6 24 8 32 7 9 -2 22 -4 29 -4z m482 -31 c0 -5 -2 -10 -4 -10 -3 0 -8 5
-11 10 -3 6 -1 10 4 10 6 0 11 -4 11 -10z m851 -43 c-10 -9 -11 -8 -5 6 3 10
9 15 12 12 3 -3 0 -11 -7 -18z m542 6 c-3 -7 -8 -13 -12 -13 -4 0 -8 6 -8 13
0 8 6 14 13 14 7 0 10 -6 7 -14z m-988 -51 c-3 -3 -11 0 -18 7 -9 10 -8 11 6
5 10 -3 15 -9 12 -12z m-3220 -32 c3 -5 1 -10 -4 -10 -6 0 -11 5 -11 10 0 6 2
10 4 10 3 0 8 -4 11 -10z m4405 -54 c0 -3 -4 -8 -10 -11 -5 -3 -10 -1 -10 4 0
6 5 11 10 11 6 0 10 -2 10 -4z m-2344 -43 c-1 -12 6 -18 19 -18 14 0 21 -8 23
-27 2 -16 7 -28 12 -28 5 0 7 8 4 18 -5 16 -5 16 6 0 6 -10 18 -18 27 -18 12
0 13 -3 4 -13 -13 -16 -5 -27 20 -27 18 0 33 -26 23 -41 -3 -5 5 -8 18 -6 17
1 23 -3 23 -18 0 -12 8 -21 20 -23 17 -3 17 -1 5 7 -9 7 -10 11 -3 11 17 0 24
-15 25 -53 0 -17 6 -38 12 -46 8 -11 8 -13 0 -8 -7 4 -15 0 -18 -9 -4 -10 -13
-13 -24 -10 -12 4 -19 1 -19 -8 0 -8 7 -12 16 -9 9 2 5 -2 -8 -10 -14 -8 -31
-12 -39 -10 -9 4 -13 0 -11 -13 2 -10 0 -19 -5 -19 -4 0 -14 -12 -22 -27 -11
-20 -22 -28 -42 -28 -21 0 -24 -2 -12 -10 10 -6 11 -10 3 -10 -7 0 -13 -6 -13
-14 0 -9 -9 -13 -25 -12 -13 2 -24 0 -23 -3 2 -24 -5 -37 -22 -37 -14 0 -18 5
-15 17 3 9 -1 22 -9 28 -8 7 -12 20 -9 29 4 14 3 15 -5 2 -6 -8 -8 -18 -6 -22
3 -4 1 -8 -4 -8 -15 0 -23 30 -9 30 7 0 4 5 -6 11 -9 5 -22 7 -27 4 -6 -3 -13
1 -17 10 -3 10 0 21 8 26 13 8 -5 13 -47 12 -6 0 -11 5 -11 12 0 14 14 14 37
0 13 -8 13 -7 1 8 -8 10 -16 15 -19 12 -3 -3 -11 0 -18 5 -6 6 -18 9 -25 8 -7
-2 -14 6 -16 17 -3 17 -2 18 7 5 10 -13 11 -13 8 0 -3 8 -19 18 -36 22 -29 8
-32 12 -32 48 0 37 2 40 24 36 18 -3 23 0 21 12 -3 23 13 42 31 35 13 -5 20
20 15 50 -1 4 7 3 18 -2 23 -13 31 -5 32 33 0 17 3 25 6 19 8 -21 33 -15 33 7
0 13 10 24 26 30 17 7 24 15 20 25 -4 11 2 15 23 15 21 0 28 -5 27 -17z m34 3
c0 -2 -7 -7 -16 -10 -8 -3 -12 -2 -9 4 6 10 25 14 25 6z m1434 -14 c3 -5 -1
-9 -9 -9 -8 0 -15 4 -15 9 0 4 4 8 9 8 6 0 12 -4 15 -8z m-127 -27 c0 -8 -4
-15 -9 -15 -10 0 -11 14 -1 23 9 10 10 9 10 -8z m500 8 c-4 -3 -1 -13 6 -21
10 -13 9 -14 -12 -3 -19 10 -21 15 -10 22 17 10 25 12 16 2z m-1217 -53 c0 -5
-7 -10 -16 -10 -8 0 -12 5 -9 10 3 6 10 10 16 10 5 0 9 -4 9 -10z m-2818 -15
c0 -5 -5 -11 -10 -13 -5 -1 -9 4 -9 13 0 9 4 14 9 13 5 -2 10 -8 10 -13z
m4398 1 c0 -3 -4 -8 -10 -11 -5 -3 -10 -1 -10 4 0 6 5 11 10 11 6 0 10 -2 10
-4z m-53 -48 c-3 -8 -6 -5 -6 6 -1 11 2 17 5 13 3 -3 4 -12 1 -19z m-1899 -93
c-3 -3 -9 2 -12 12 -6 14 -5 15 5 6 7 -7 10 -15 7 -18z m12 -21 c0 -8 -19 -13
-24 -6 -3 5 1 9 9 9 8 0 15 -2 15 -3z m1934 -6 c-3 -4 -12 -8 -20 -8 -8 0 -13
4 -10 8 3 5 12 9 20 9 8 0 13 -4 10 -9z m-4209 -18 c3 -5 -1 -10 -9 -10 -9 0
-16 5 -16 10 0 6 4 10 9 10 6 0 13 -4 16 -10z m2495 0 c0 -5 -5 -10 -11 -10
-5 0 -7 5 -4 10 3 6 8 10 11 10 2 0 4 -4 4 -10z m-1344 -98 c13 -31 29 -46 18
-17 -5 11 -2 13 10 9 9 -3 15 -13 14 -22 -2 -9 6 -18 20 -21 13 -3 22 -10 20
-16 -2 -5 -7 -9 -11 -7 -5 1 -6 -2 -2 -8 3 -5 11 -10 17 -10 6 0 17 -8 25 -17
8 -10 12 -12 8 -5 -3 6 -1 12 4 12 6 0 11 -9 11 -20 0 -20 -19 -23 -32 -5 -4
6 -8 2 -8 -7 0 -10 0 -21 -1 -25 -1 -9 -30 -27 -44 -28 -5 0 -9 -10 -9 -23 1
-17 -4 -22 -22 -22 -19 0 -24 -5 -24 -27 -1 -27 -1 -27 -15 -9 -13 17 -15 18
-15 3 0 -9 -4 -17 -9 -17 -5 0 -7 -9 -4 -20 4 -16 0 -20 -21 -20 -19 0 -26 -5
-26 -19 0 -11 -4 -23 -10 -26 -5 -3 -10 -1 -10 6 0 22 -21 -6 -23 -30 -1 -15
-8 -21 -23 -21 -16 0 -24 -7 -26 -22 -2 -14 -10 -23 -19 -22 -11 1 -16 -8 -17
-28 0 -22 3 -28 13 -24 8 3 17 0 21 -6 4 -6 3 -8 -3 -5 -6 4 -17 -1 -24 -10
-12 -14 -11 -15 10 -8 16 5 21 4 17 -4 -4 -6 -2 -11 3 -11 6 0 11 -9 11 -20 0
-22 25 -28 33 -7 3 6 6 -2 6 -19 1 -19 7 -34 16 -38 8 -3 15 -1 15 5 0 5 6 4
14 -3 8 -7 10 -14 6 -16 -16 -6 2 -32 21 -32 10 0 19 -5 19 -11 0 -11 24 -38
37 -42 4 -1 8 -10 7 -19 -1 -21 7 -23 25 -5 9 8 12 8 7 0 -3 -6 -1 -13 4 -15
6 -2 12 -13 13 -26 1 -16 6 -21 19 -16 10 3 18 0 18 -6 0 -8 9 -10 23 -7 19 5
20 4 6 -6 -18 -14 -14 -38 6 -31 8 4 15 -3 17 -17 2 -16 11 -23 33 -26 17 -2
32 -8 33 -14 2 -5 8 -9 13 -9 6 0 7 5 4 10 -5 8 22 13 51 9 8 -1 24 23 24 36
0 6 -5 3 -10 -5 -6 -9 -10 -10 -10 -3 0 19 21 27 31 12 7 -11 9 -9 10 6 1 11
2 25 2 32 0 7 2 12 6 11 27 -3 41 5 41 22 0 15 9 22 30 27 17 3 30 10 30 15 0
5 -4 6 -10 3 -6 -3 -7 1 -4 9 3 9 9 15 12 14 30 -3 43 4 37 21 -3 11 0 23 6
27 8 4 9 3 5 -4 -4 -7 -3 -12 2 -12 6 0 12 7 15 15 4 8 15 12 28 10 12 -2 18
-1 15 3 -4 4 -12 8 -17 8 -22 3 -23 5 -9 14 9 6 20 5 30 -3 8 -6 12 -7 8 -3
-4 5 0 15 10 23 9 8 11 12 5 8 -8 -4 -13 0 -13 10 0 9 5 13 10 10 6 -3 10 -1
10 5 0 6 5 8 10 5 6 -3 10 -1 10 5 0 7 8 9 20 5 14 -5 20 -2 20 9 0 9 -5 16
-11 16 -5 0 -7 -4 -4 -10 10 -16 -1 -12 -15 6 -8 8 -9 14 -4 13 29 -5 55 2 48
14 -6 9 -4 9 8 -1 12 -9 18 -10 23 -2 4 6 4 14 1 17 -10 10 15 32 30 26 8 -3
15 0 15 6 2 16 5 23 18 51 10 22 11 22 7 3 -2 -15 0 -20 10 -16 7 2 14 14 16
26 2 14 9 21 19 19 11 -1 21 8 27 27 9 24 15 29 34 24 18 -4 20 -3 8 6 -8 6
-10 11 -5 11 6 0 3 5 -5 10 -12 8 -10 10 10 11 14 1 31 1 38 0 9 -2 12 6 10
21 -2 19 2 23 20 22 18 -1 22 4 19 18 -6 20 19 38 43 31 13 -4 13 -3 0 6 -10
7 -11 11 -2 11 6 0 12 7 12 16 0 11 6 15 20 11 10 -3 19 -2 18 2 -4 33 4 48
24 47 17 -1 24 6 29 32 4 18 10 36 14 40 5 4 5 -1 2 -10 -4 -12 -1 -18 7 -18
7 0 16 15 20 33 4 20 9 27 14 20 5 -7 13 -9 21 -4 11 7 10 11 -5 21 -12 7 -13
10 -3 7 8 -3 21 4 27 14 7 10 17 19 24 19 7 0 3 -7 -8 -15 -17 -14 -15 -14 14
0 17 8 32 18 32 21 0 3 -4 3 -9 -1 -5 -3 -12 -1 -15 4 -4 5 2 8 11 6 10 -2 22
-4 27 -4 5 -1 2 -9 -5 -18 -10 -11 -10 -14 -1 -9 7 4 12 2 12 -6 0 -8 7 -23
16 -34 14 -18 15 -18 4 4 -9 19 -8 22 12 22 16 0 19 -3 10 -9 -11 -7 -11 -11
1 -22 7 -8 13 -22 11 -32 -1 -9 2 -15 7 -11 5 3 7 9 4 14 -3 4 1 10 8 13 9 3
13 -8 12 -42 0 -39 -3 -46 -19 -43 -10 2 -15 -1 -12 -7 4 -5 2 -12 -4 -16 -6
-4 -8 -11 -5 -16 4 -5 -5 -9 -18 -9 -14 0 -24 -6 -25 -15 -1 -8 -3 -22 -4 -30
-1 -11 -4 -12 -15 -3 -10 8 -17 8 -25 0 -9 -9 -8 -12 5 -12 9 0 17 -4 17 -10
0 -5 -7 -7 -15 -3 -10 3 -15 0 -13 -8 2 -9 -4 -13 -15 -11 -12 2 -21 -4 -24
-17 -3 -12 -9 -21 -14 -21 -5 0 -6 -8 -3 -17 5 -17 5 -17 -6 0 -13 21 -27 22
-27 2 0 -8 4 -12 9 -9 4 3 8 1 8 -4 0 -6 -13 -15 -30 -21 -16 -5 -30 -17 -30
-25 0 -8 -10 -16 -22 -18 -17 -2 -23 -9 -22 -25 1 -21 -5 -25 -33 -22 -5 0
-11 -10 -14 -23 -3 -14 -12 -22 -23 -21 -13 1 -16 -4 -13 -18 3 -10 1 -17 -4
-13 -5 3 -9 -3 -9 -13 0 -10 -5 -25 -11 -33 -8 -12 -9 -10 -4 8 5 16 2 22 -10
22 -11 0 -15 -5 -11 -15 5 -15 -26 -39 -38 -28 -6 6 -10 -21 -7 -41 1 -5 -10
-6 -24 -4 -15 3 -25 1 -24 -6 4 -33 -2 -44 -21 -39 -19 5 -26 -8 -34 -62 -1
-10 -11 -20 -22 -21 -10 -2 -20 -8 -23 -15 -2 -8 -6 -7 -12 2 -6 11 -11 11
-21 1 -9 -9 -9 -12 1 -12 23 0 -9 -30 -33 -31 -11 0 -16 -3 -9 -5 8 -4 7 -11
-4 -24 -9 -10 -20 -17 -25 -14 -4 3 -8 0 -8 -6 0 -6 -5 -8 -10 -5 -6 4 -10 3
-9 -2 5 -28 -2 -41 -21 -36 -11 3 -20 0 -20 -6 0 -6 6 -11 13 -11 6 -1 2 -6
-11 -13 -12 -7 -19 -17 -15 -22 4 -5 1 -4 -8 3 -9 6 -19 9 -22 5 -4 -3 1 -12
11 -20 16 -12 16 -13 -2 -6 -13 4 -17 3 -12 -5 5 -8 -1 -12 -18 -12 -14 0 -25
-3 -25 -7 5 -28 -3 -41 -20 -36 -14 3 -21 -3 -29 -25 -6 -17 -9 -33 -6 -36 2
-3 -2 -2 -8 4 -17 14 -28 12 -28 -6 0 -9 5 -12 13 -8 9 5 9 4 0 -6 -7 -7 -23
-14 -35 -15 -15 -1 -22 -8 -20 -18 3 -16 -30 -41 -40 -31 -3 3 -8 -2 -12 -11
-3 -9 -2 -13 4 -10 6 3 10 1 10 -4 0 -6 -4 -11 -9 -11 -5 0 -13 -10 -17 -22
l-6 -21 -14 24 -13 24 -1 -25 c0 -19 -6 -26 -20 -27 -11 -1 -19 1 -16 5 8 15
-14 52 -28 46 -8 -3 -17 0 -22 7 -4 8 -3 10 4 5 7 -4 12 -2 12 4 0 6 5 8 12 4
7 -4 8 -3 4 4 -4 6 -12 9 -19 6 -7 -2 -18 10 -26 27 -10 23 -16 28 -22 18 -8
-12 -11 -11 -18 1 -7 9 -6 20 2 30 6 8 2 6 -11 -4 -12 -11 -25 -16 -29 -13 -4
4 2 13 12 20 13 10 14 14 4 15 -42 5 -54 9 -54 17 0 6 3 9 8 8 4 -2 7 -1 7 2
0 9 -57 34 -64 28 -3 -4 -6 -1 -6 5 0 6 5 14 10 17 6 3 10 2 10 -3 0 -6 8 -13
17 -16 15 -6 15 -5 -1 13 -10 11 -21 20 -25 19 -3 0 -9 1 -13 2 -5 1 -14 3
-20 4 -7 0 -14 11 -16 24 -2 12 -8 22 -14 22 -5 0 -8 7 -5 15 4 8 1 17 -5 21
-7 4 -8 3 -4 -4 4 -7 2 -12 -4 -12 -6 0 -8 -4 -5 -10 3 -5 1 -10 -5 -10 -7 0
-10 6 -7 13 8 22 -27 67 -57 75 -29 8 -49 32 -26 32 6 0 9 -4 6 -8 -3 -5 1 -9
9 -9 39 0 -4 30 -45 31 -8 1 -16 9 -18 20 -3 11 0 16 7 11 6 -3 8 -11 5 -17
-4 -7 -2 -8 5 -4 9 6 9 11 0 22 -6 7 -15 11 -20 8 -5 -3 -9 -1 -9 5 0 5 -9 8
-20 6 -12 -2 -20 2 -20 10 0 8 8 12 23 9 17 -3 16 -1 -6 8 -15 7 -25 18 -23
24 3 7 -3 18 -12 26 -15 12 -16 11 -3 -4 9 -13 10 -18 2 -18 -7 0 -9 -5 -5
-12 5 -9 3 -9 -9 1 -9 7 -15 17 -12 21 3 5 0 12 -6 15 -5 4 -8 13 -5 21 3 8 0
11 -9 7 -8 -3 -12 -9 -9 -14 3 -5 0 -9 -5 -9 -15 0 -14 13 2 29 8 9 8 12 0 7
-6 -3 -13 -1 -15 4 -2 6 -13 12 -24 12 -11 1 -21 8 -21 15 0 6 4 10 8 7 4 -2
11 0 14 6 4 6 3 10 -2 9 -26 -4 -34 2 -28 22 6 19 5 20 -8 8 -8 -8 -13 -17
-10 -21 2 -5 -1 -8 -6 -8 -14 0 -14 13 0 27 9 9 2 13 -26 19 -24 4 -33 9 -24
15 7 4 17 5 21 3 4 -3 8 0 8 6 0 7 -7 9 -15 6 -16 -6 -22 3 -27 39 -2 14 3 20
20 21 35 2 35 3 21 21 -10 11 -10 14 -1 9 6 -4 12 -2 12 3 0 6 8 11 18 11 26
0 34 11 21 27 -12 13 -10 14 31 17 9 1 15 11 14 24 -1 21 11 27 43 23 8 -1 10
5 7 14 -4 8 -1 22 6 30 10 12 16 13 27 3 13 -10 14 -8 11 12 -2 20 2 26 20 28
13 2 22 10 22 22 0 11 10 20 25 24 14 4 25 13 25 21 0 9 11 21 25 27 14 6 24
18 23 27 -2 10 4 16 17 16 13 0 21 8 23 23 2 14 10 22 23 22 10 0 20 5 20 10
1 6 2 16 3 23 1 6 11 12 24 11 16 0 22 5 22 22 0 33 30 24 46 -14z m1029 10
c-3 -3 -11 0 -18 7 -9 10 -8 11 6 5 10 -3 15 -9 12 -12z m395 14 c0 -3 -4 -8
-10 -11 -5 -3 -10 -1 -10 4 0 6 5 11 10 11 6 0 10 -2 10 -4z m1100 0 c0 -3 -4
-8 -10 -11 -5 -3 -10 -1 -10 4 0 6 5 11 10 11 6 0 10 -2 10 -4z m85 -94 c-3
-3 -11 0 -18 7 -9 10 -8 11 6 5 10 -3 15 -9 12 -12z m-1590 -92 c-3 -5 -12
-10 -18 -10 -7 0 -6 4 3 10 19 12 23 12 15 0z m589 -5 c-4 -8 -8 -15 -10 -15
-2 0 -4 7 -4 15 0 8 4 15 10 15 5 0 7 -7 4 -15z m-1343 -77 c1 -7 1 -19 0 -26
-2 -9 6 -12 21 -10 16 2 23 -2 23 -14 0 -21 8 -29 31 -32 16 -2 23 -18 26 -55
1 -10 4 -10 13 3 14 18 25 11 25 -15 0 -11 9 -19 23 -21 12 -2 22 -10 23 -18
2 -34 5 -38 24 -33 17 4 20 0 20 -23 0 -23 -2 -26 -11 -14 -8 12 -10 9 -6 -12
2 -15 0 -25 -4 -22 -5 3 -9 15 -10 27 0 21 -1 21 -8 2 -5 -11 -6 -26 -4 -32 3
-7 0 -13 -7 -13 -6 0 -8 -5 -4 -12 5 -9 2 -8 -9 1 -10 8 -21 10 -25 6 -4 -4
-2 -10 5 -12 10 -4 10 -7 0 -18 -7 -7 -15 -11 -19 -8 -5 2 -8 -2 -8 -9 0 -10
-3 -9 -11 2 -9 12 -10 11 -6 -7 4 -18 -1 -23 -25 -28 -26 -6 -28 -8 -12 -19
13 -10 14 -15 4 -21 -9 -5 -11 -4 -6 3 4 7 2 12 -3 12 -11 0 -15 -15 -11 -35
1 -5 -4 -4 -11 3 -19 18 -34 15 -18 -5 8 -10 9 -14 2 -10 -6 4 -14 3 -18 -3
-3 -5 -1 -10 6 -10 20 0 -24 -29 -44 -30 -10 0 -16 -4 -13 -8 2 -4 -5 -8 -17
-9 -12 0 -16 1 -10 4 10 3 9 9 -3 20 -8 9 -13 24 -11 35 3 10 1 16 -3 13 -5
-3 -11 -1 -15 5 -4 6 -10 8 -15 5 -4 -3 -10 2 -14 10 -3 8 -11 15 -18 15 -9 0
-9 -3 2 -11 13 -9 13 -10 0 -6 -8 2 -15 12 -15 23 0 14 -7 19 -25 19 -19 0
-26 7 -30 26 -3 18 -11 25 -22 23 -10 -1 -18 4 -18 12 0 8 6 11 15 8 8 -4 15
-2 15 3 0 10 -8 12 -53 16 -19 2 -22 9 -25 43 -1 31 2 43 14 48 9 3 19 4 23 1
5 -2 7 7 5 20 -2 20 2 25 22 25 18 0 24 5 24 23 0 30 10 40 27 26 7 -6 14 -8
14 -3 1 5 2 16 3 24 0 8 13 16 28 18 24 3 27 6 18 22 -11 21 -4 28 26 25 16
-1 20 4 18 22 -2 21 2 23 42 23 28 0 44 -5 45 -12z m1266 -2 c-2 -5 -9 -12
-17 -14 -7 -3 -10 0 -6 7 10 16 1 14 -13 -3 -10 -12 -8 -14 13 -12 14 2 27 -3
30 -11 3 -7 9 -13 13 -12 21 4 32 -2 27 -14 -3 -8 3 -20 12 -28 10 -8 15 -9
11 -3 -3 6 0 11 8 11 7 0 14 -7 14 -16 2 -39 5 -50 14 -44 6 4 8 0 4 -10 -3
-9 -3 -16 1 -16 4 1 18 1 31 0 19 -1 21 -4 12 -15 -9 -10 -7 -17 6 -27 16 -12
17 -12 7 1 -9 12 -8 18 4 30 14 13 15 13 10 -1 -7 -19 6 -44 24 -44 7 -1 12
-6 11 -13 -2 -7 2 -12 9 -12 6 0 9 -3 6 -6 -4 -3 -15 -1 -26 5 -16 9 -19 7
-19 -12 -1 -43 -3 -49 -17 -44 -18 7 -36 -11 -29 -29 4 -10 -3 -14 -21 -14
-21 0 -26 -5 -26 -26 0 -19 -4 -25 -15 -21 -8 4 -17 2 -20 -4 -4 -5 -12 -6
-18 -2 -7 4 -6 -1 2 -11 12 -15 12 -19 1 -26 -7 -4 -19 -6 -27 -3 -9 3 -13 -3
-13 -21 0 -21 -5 -26 -27 -27 -16 -1 -31 -1 -34 -1 -3 1 -6 -6 -6 -13 0 -11 4
-12 14 -3 11 8 12 7 7 -6 -10 -27 -44 -20 -44 10 0 14 -4 23 -10 19 -5 -3 -10
0 -10 7 0 9 -3 9 -10 -2 -10 -16 -14 -8 -11 23 2 12 -5 17 -24 17 -15 0 -25 5
-24 13 3 28 -2 36 -22 32 -17 -3 -20 0 -16 14 2 11 -4 26 -14 35 -11 9 -19 11
-19 6 0 -20 -19 -9 -22 12 -2 12 -12 25 -23 28 -14 3 -20 13 -20 35 0 38 11
56 30 48 11 -4 15 2 15 21 0 19 5 26 20 26 18 0 25 10 21 33 -1 7 2 8 32 11 6
0 13 11 15 24 2 15 10 22 26 22 18 0 23 5 22 23 -1 16 5 22 19 22 13 0 21 8
23 23 3 20 8 23 48 21 24 -2 43 -7 41 -13z m-829 -71 c-3 -3 -9 2 -12 12 -6
14 -5 15 5 6 7 -7 10 -15 7 -18z m-1297 -38 c-13 -13 -26 -3 -16 12 3 6 11 8
17 5 6 -4 6 -10 -1 -17z m2259 -35 c0 -15 -2 -15 -10 -2 -13 20 -13 33 0 25 6
-3 10 -14 10 -23z m-635 -92 c-3 -5 -12 -10 -18 -10 -7 0 -6 4 3 10 19 12 23
12 15 0z m1225 -46 c0 -2 -7 -4 -15 -4 -8 0 -15 4 -15 10 0 5 7 7 15 4 8 -4
15 -8 15 -10z m-2902 -49 c-3 -3 -9 2 -12 12 -6 14 -5 15 5 6 7 -7 10 -15 7
-18z m2972 -25 c0 -5 -5 -10 -11 -10 -5 0 -7 5 -4 10 3 6 8 10 11 10 2 0 4 -4
4 -10z m-2920 -14 c0 -3 -4 -8 -10 -11 -5 -3 -10 -1 -10 4 0 6 5 11 10 11 6 0
10 -2 10 -4z m544 -44 c3 -5 -1 -9 -9 -9 -8 0 -12 4 -9 9 3 4 7 8 9 8 2 0 6
-4 9 -8z m887 -15 c-10 -9 -11 -8 -5 6 3 10 9 15 12 12 3 -3 0 -11 -7 -18z
m-676 -47 c-5 -8 -11 -8 -17 -2 -6 6 -7 16 -3 22 5 8 11 8 17 2 6 -6 7 -16 3
-22z m-621 -26 c3 -8 2 -12 -4 -9 -6 3 -10 10 -10 16 0 14 7 11 14 -7z m2486
-8 c0 -3 -4 -8 -10 -11 -5 -3 -10 -1 -10 4 0 6 5 11 10 11 6 0 10 -2 10 -4z
m-2185 -136 c16 -17 16 -20 3 -15 -9 4 -19 13 -22 21 -7 19 -2 18 19 -6z
m-120 -40 c3 -5 1 -10 -4 -10 -6 0 -11 5 -11 10 0 6 2 10 4 10 3 0 8 -4 11
-10z m756 -103 c-10 -9 -11 -8 -5 6 3 10 9 15 12 12 3 -3 0 -11 -7 -18z m-34
-43 c-3 -3 -12 -4 -19 -1 -8 3 -5 6 6 6 11 1 17 -2 13 -5z m-496 -87 c-10 -9
-11 -8 -5 6 3 10 9 15 12 12 3 -3 0 -11 -7 -18z m179 -6 c0 -4 -7 -8 -15 -8
-16 0 -20 9 -9 20 8 8 24 -1 24 -12z m-107 -66 c-3 -9 -8 -14 -10 -11 -3 3 -2
9 2 15 9 16 15 13 8 -4z m44 -57 c-3 -8 -6 -5 -6 6 -1 11 2 17 5 13 3 -3 4
-12 1 -19z"/>
<path d="M2514 4392 c3 -5 0 -13 -6 -15 -9 -4 -10 -6 -1 -6 17 -1 25 16 12 25
-7 4 -9 3 -5 -4z"/>
<path d="M1993 4193 c0 -9 4 -10 14 -2 7 6 13 12 13 14 0 1 -6 2 -13 2 -8 0
-14 -6 -14 -14z"/>
<path d="M1917 4023 c-10 -9 -9 -23 1 -23 5 0 9 7 9 15 0 17 -1 18 -10 8z"/>
<path d="M1957 3967 c-3 -8 1 -14 8 -14 7 0 11 6 8 14 -3 7 -6 13 -8 13 -2 0
-5 -6 -8 -13z"/>
<path d="M2046 3867 c3 -10 9 -15 12 -12 3 3 0 11 -7 18 -10 9 -11 8 -5 -6z"/>
<path d="M2230 3690 c0 -5 5 -10 10 -10 6 0 10 5 10 10 0 6 -4 10 -10 10 -5 0
-10 -4 -10 -10z"/>
<path d="M2505 3120 c-3 -5 1 -10 9 -10 9 0 16 5 16 10 0 6 -4 10 -9 10 -6 0
-13 -4 -16 -10z"/>
<path d="M3453 4685 c0 -8 4 -15 9 -15 4 0 8 4 8 9 0 6 -4 12 -8 15 -5 3 -9
-1 -9 -9z"/>
<path d="M3320 4540 c-9 -6 -10 -10 -3 -10 6 0 15 5 18 10 8 12 4 12 -15 0z"/>
<path d="M3106 4323 c-6 -14 -5 -15 5 -6 7 7 10 15 7 18 -3 3 -9 -2 -12 -12z"/>
<path d="M3765 3610 c-3 -5 -2 -10 4 -10 5 0 13 5 16 10 3 6 2 10 -4 10 -5 0
-13 -4 -16 -10z"/>
<path d="M3810 3568 c0 -4 4 -8 9 -8 6 0 12 4 15 8 3 5 -1 9 -9 9 -8 0 -15 -4
-15 -9z"/>
<path d="M3181 3923 c-1 -17 16 -25 25 -12 4 7 3 9 -4 5 -5 -3 -13 0 -15 6 -4
9 -6 10 -6 1z"/>
<path d="M3497 3386 c-4 -10 -1 -13 8 -9 8 3 12 9 9 14 -7 12 -11 11 -17 -5z"/>
<path d="M3547 3349 c7 -7 15 -10 18 -7 3 3 -2 9 -12 12 -14 6 -15 5 -6 -5z"/>
<path d="M3825 3081 c-3 -5 -2 -12 3 -15 5 -3 9 1 9 9 0 17 -3 19 -12 6z"/>
<path d="M4070 3026 c0 -2 7 -7 16 -10 8 -3 12 -2 9 4 -6 10 -25 14 -25 6z"/>
<path d="M4030 2980 c-12 -7 -10 -9 7 -7 12 0 19 5 17 9 -6 10 -6 10 -24 -2z"/>
<path d="M3035 3250 c-3 -5 -1 -10 4 -10 6 0 11 5 11 10 0 6 -2 10 -4 10 -3 0
-8 -4 -11 -10z"/>
<path d="M2131 3284 c0 -11 3 -14 6 -6 3 7 2 16 -1 19 -3 4 -6 -2 -5 -13z"/>
<path d="M1075 3250 c3 -5 8 -10 11 -10 2 0 4 5 4 10 0 6 -5 10 -11 10 -5 0
-7 -4 -4 -10z"/>
<path d="M1105 3250 c3 -5 10 -10 16 -10 5 0 9 5 9 10 0 6 -7 10 -16 10 -8 0
-12 -4 -9 -10z"/>
<path d="M1776 3017 c3 -8 11 -14 19 -14 20 0 19 4 -5 17 -15 8 -18 8 -14 -3z"/>
<path d="M475 2970 c3 -5 8 -10 11 -10 2 0 4 5 4 10 0 6 -5 10 -11 10 -5 0 -7
-4 -4 -10z"/>
<path d="M393 2875 c0 -8 4 -12 9 -9 5 3 6 10 3 15 -9 13 -12 11 -12 -6z"/>
<path d="M650 2849 c0 -5 -5 -7 -12 -3 -7 4 -8 3 -4 -4 4 -6 13 -9 21 -6 8 4
12 10 9 15 -7 12 -14 11 -14 -2z"/>
<path d="M517 2623 c-11 -11 -8 -20 7 -20 8 0 12 6 9 14 -6 15 -7 15 -16 6z"/>
<path d="M1325 2570 c-3 -6 1 -7 9 -4 18 7 21 14 7 14 -6 0 -13 -4 -16 -10z"/>
<path d="M1233 2475 c0 -8 4 -12 9 -9 5 3 6 10 3 15 -9 13 -12 11 -12 -6z"/>
<path d="M1195 2431 c-3 -5 -2 -12 3 -15 5 -3 9 1 9 9 0 17 -3 19 -12 6z"/>
<path d="M840 2289 c0 -5 5 -7 10 -4 6 3 10 8 10 11 0 2 -4 4 -10 4 -5 0 -10
-5 -10 -11z"/>
<path d="M4855 3251 c-6 -11 9 -23 19 -14 9 9 7 23 -3 23 -6 0 -12 -4 -16 -9z"/>
<path d="M4610 3076 c0 -2 7 -7 16 -10 8 -3 12 -2 9 4 -6 10 -25 14 -25 6z"/>
<path d="M5254 2749 c-4 -7 -3 -9 4 -5 5 3 12 0 15 -6 2 -7 7 -10 11 -7 4 3 0
12 -8 18 -11 9 -16 9 -22 0z"/>
<path d="M5221 2697 c-8 -10 -7 -14 2 -14 8 0 14 6 14 14 0 7 -1 13 -2 13 -2
0 -8 -6 -14 -13z"/>
<path d="M5046 2517 c3 -10 9 -15 12 -12 3 3 0 11 -7 18 -10 9 -11 8 -5 -6z"/>
<path d="M4407 2489 c7 -7 15 -10 18 -7 3 3 -2 9 -12 12 -14 6 -15 5 -6 -5z"/>
<path d="M3985 2440 c-3 -6 1 -7 9 -4 18 7 21 14 7 14 -6 0 -13 -4 -16 -10z"/>
<path d="M4951 2427 c-8 -10 -7 -14 2 -14 8 0 14 6 14 14 0 7 -1 13 -2 13 -2
0 -8 -6 -14 -13z"/>
<path d="M4886 2387 c3 -10 9 -15 12 -12 3 3 0 11 -7 18 -10 9 -11 8 -5 -6z"/>
<path d="M4910 2390 c0 -5 5 -10 11 -10 5 0 7 5 4 10 -3 6 -8 10 -11 10 -2 0
-4 -4 -4 -10z"/>
<path d="M4536 2351 c-3 -5 1 -11 9 -14 9 -4 12 -1 8 9 -6 16 -10 17 -17 5z"/>
<path d="M4587 2306 c-3 -8 -2 -18 3 -21 13 -8 20 9 11 24 -6 10 -10 9 -14 -3z"/>
<path d="M4807 2073 c3 -7 6 -13 8 -13 2 0 5 6 8 13 3 8 -1 14 -8 14 -7 0 -11
-6 -8 -14z"/>
<path d="M3354 3074 c-18 -14 -18 -15 4 -4 12 6 22 13 22 15 0 8 -5 6 -26 -11z"/>
<path d="M2899 2613 c-13 -16 -12 -17 4 -4 16 13 21 21 13 21 -2 0 -10 -8 -17
-17z"/>
<path d="M1064 2581 c4 -5 0 -11 -6 -14 -7 -3 -3 -4 9 -4 17 1 19 4 11 14 -12
15 -22 18 -14 4z"/>
<path d="M2291 3014 c0 -11 3 -14 6 -6 3 7 2 16 -1 19 -3 4 -6 -2 -5 -13z"/>
<path d="M2455 2960 c-3 -5 -1 -10 4 -10 6 0 11 5 11 10 0 6 -2 10 -4 10 -3 0
-8 -4 -11 -10z"/>
<path d="M2187 2919 c7 -7 15 -10 18 -7 3 3 -2 9 -12 12 -14 6 -15 5 -6 -5z"/>
<path d="M2580 2843 c0 -6 8 -17 18 -24 16 -13 16 -13 2 6 -8 11 -16 22 -17
24 -2 2 -3 0 -3 -6z"/>
<path d="M2090 2789 c0 -5 5 -7 10 -4 6 3 10 8 10 11 0 2 -4 4 -10 4 -5 0 -10
-5 -10 -11z"/>
<path d="M4580 2790 c0 -5 7 -7 15 -4 8 4 15 8 15 10 0 2 -7 4 -15 4 -8 0 -15
-4 -15 -10z"/>
<path d="M4767 2614 c6 -15 23 -19 23 -5 0 5 -7 11 -14 14 -10 4 -13 1 -9 -9z"/>
<path d="M3490 2976 c0 -2 7 -7 16 -10 8 -3 12 -2 9 4 -6 10 -25 14 -25 6z"/>
<path d="M3756 2161 c-4 -5 -2 -12 3 -15 5 -4 12 -2 15 3 4 5 2 12 -3 15 -5 4
-12 2 -15 -3z"/>
<path d="M4315 1619 c-4 -6 -5 -12 -2 -15 2 -3 7 2 10 11 7 17 1 20 -8 4z"/>
<path d="M3580 1110 c-12 -7 -10 -9 8 -7 12 0 22 5 22 9 0 11 -12 10 -30 -2z"/>
<path d="M2726 2168 c3 -4 9 -8 15 -8 5 0 9 4 9 8 0 5 -7 9 -15 9 -8 0 -12 -4
-9 -9z"/>
<path d="M3075 2040 c-3 -5 -1 -10 4 -10 6 0 11 5 11 10 0 6 -2 10 -4 10 -3 0
-8 -4 -11 -10z"/>
<path d="M2130 1851 c0 -6 4 -13 10 -16 6 -3 7 1 4 9 -7 18 -14 21 -14 7z"/>
<path d="M2857 1313 c-11 -10 -8 -20 6 -20 8 0 14 6 14 14 0 14 -10 17 -20 6z"/>
<path d="M2513 1263 c-7 -2 -13 -12 -12 -21 0 -11 2 -12 6 -4 2 6 8 10 12 8 4
-3 8 1 8 9 0 8 -1 15 -1 14 -1 0 -7 -3 -13 -6z"/>
<path d="M2467 1207 c-3 -8 1 -14 8 -14 7 0 11 6 8 14 -3 7 -6 13 -8 13 -2 0
-5 -6 -8 -13z"/>
<path d="M2053 1078 c0 -13 1 -17 4 -10 3 6 10 9 16 5 7 -4 6 1 -2 10 -17 21
-17 21 -18 -5z"/>
<path d="M2325 810 c-3 -5 -1 -10 4 -10 6 0 11 5 11 10 0 6 -2 10 -4 10 -3 0
-8 -4 -11 -10z"/>
<path d="M2104 1542 c3 -5 0 -13 -6 -15 -9 -4 -10 -6 -1 -6 17 -1 25 16 12 25
-7 4 -9 3 -5 -4z"/>
<path d="M2187 1441 c-3 -13 -1 -18 9 -14 7 2 10 11 7 19 -7 19 -10 18 -16 -5z"/>
<path d="M2343 1313 c9 -2 23 -2 30 0 6 3 -1 5 -18 5 -16 0 -22 -2 -12 -5z"/>
<path d="M3680 1751 c0 -7 -5 -9 -12 -5 -7 5 -8 3 -3 -5 5 -9 10 -10 18 -2 6
6 8 14 4 18 -4 3 -7 1 -7 -6z"/>
<path d="M3718 1693 c7 -3 16 -2 19 1 4 3 -2 6 -13 5 -11 0 -14 -3 -6 -6z"/>
<path d="M2260 4976 c0 -2 8 -10 18 -17 15 -13 16 -12 3 4 -13 16 -21 21 -21
13z"/>
<path d="M2500 4886 c0 -2 7 -7 16 -10 8 -3 12 -2 9 4 -6 10 -25 14 -25 6z"/>
<path d="M3810 4830 c0 -5 5 -10 11 -10 5 0 7 5 4 10 -3 6 -8 10 -11 10 -2 0
-4 -4 -4 -10z"/>
<path d="M2002 4696 c7 -8 15 -12 17 -11 5 6 -10 25 -20 25 -5 0 -4 -6 3 -14z"/>
<path d="M1952 4651 c4 -13 18 -16 19 -4 0 4 -5 9 -11 12 -7 2 -11 -2 -8 -8z"/>
<path d="M1860 4552 c0 -5 7 -9 15 -9 8 0 15 4 15 9 0 4 -7 8 -15 8 -8 0 -15
-4 -15 -8z"/>
<path d="M1642 4336 c7 -8 15 -12 17 -11 5 6 -10 25 -20 25 -5 0 -4 -6 3 -14z"/>
<path d="M1548 3863 c7 -3 16 -2 19 1 4 3 -2 6 -13 5 -11 0 -14 -3 -6 -6z"/>
<path d="M1642 3784 c-7 -8 -8 -14 -3 -14 10 0 25 19 20 25 -2 1 -10 -3 -17
-11z"/>
<path d="M1695 3739 c-4 -6 -5 -12 -2 -15 2 -3 7 2 10 11 7 17 1 20 -8 4z"/>
<path d="M4798 3733 c7 -3 16 -2 19 1 4 3 -2 6 -13 5 -11 0 -14 -3 -6 -6z"/>
<path d="M4667 3615 c-4 -8 -3 -16 1 -19 4 -3 9 4 9 15 2 23 -3 25 -10 4z"/>
<path d="M4527 3476 c-4 -10 -1 -13 8 -9 8 3 12 9 9 14 -7 12 -11 11 -17 -5z"/>
<path d="M1953 3456 c-1 -12 1 -15 4 -8 3 6 8 10 12 8 4 -3 8 1 8 8 0 22 -23
14 -24 -8z"/>
<path d="M4486 3431 c-3 -5 1 -11 9 -14 9 -4 12 -1 8 9 -6 16 -10 17 -17 5z"/>
<path d="M3993 3385 c0 -6 6 -12 12 -12 6 0 12 6 12 12 0 6 -6 12 -12 12 -6 0
-12 -6 -12 -12z"/>
<path d="M4184 3212 c3 -5 0 -13 -6 -15 -9 -4 -10 -6 -1 -6 17 -1 25 16 12 25
-7 4 -9 3 -5 -4z"/>
<path d="M150 2820 c0 -6 -5 -8 -12 -4 -7 5 -8 3 -2 -7 5 -8 9 -17 9 -21 0 -5
3 -8 8 -8 4 0 10 0 13 0 4 0 1 6 -5 14 -9 11 -9 15 1 18 9 3 9 6 0 12 -7 4
-12 2 -12 -4z"/>
<path d="M5754 2739 c-4 -7 -3 -9 4 -5 5 3 13 0 15 -6 4 -9 6 -10 6 -1 1 17
-16 25 -25 12z"/>
<path d="M5636 2603 c-6 -14 -5 -15 5 -6 7 7 10 15 7 18 -3 3 -9 -2 -12 -12z"/>
<path d="M5490 2470 c0 -5 5 -10 10 -10 6 0 10 5 10 10 0 6 -4 10 -10 10 -5 0
-10 -4 -10 -10z"/>
<path d="M5450 2420 c-9 -6 -10 -10 -3 -10 6 0 15 5 18 10 8 12 4 12 -15 0z"/>
<path d="M1905 2120 c-3 -6 1 -7 9 -4 18 7 21 14 7 14 -6 0 -13 -4 -16 -10z"/>
<path d="M5127 2116 c-4 -10 -1 -13 8 -9 8 3 12 9 9 14 -7 12 -11 11 -17 -5z"/>
<path d="M5071 2077 c2 -1 13 -9 24 -17 19 -14 19 -14 6 3 -7 9 -18 17 -24 17
-6 0 -8 -1 -6 -3z"/>
<path d="M1777 1993 c-4 -3 -7 -11 -7 -17 0 -6 5 -5 12 2 6 6 9 14 7 17 -3 3
-9 2 -12 -2z"/>
<path d="M1730 1930 c-9 -6 -10 -10 -3 -10 6 0 15 5 18 10 8 12 4 12 -15 0z"/>
<path d="M1680 1895 c-7 -9 -8 -15 -2 -15 5 0 12 7 16 15 3 8 4 15 2 15 -2 0
-9 -7 -16 -15z"/>
<path d="M1415 1610 c3 -5 8 -10 11 -10 2 0 4 5 4 10 0 6 -5 10 -11 10 -5 0
-7 -4 -4 -10z"/>
<path d="M4534 1580 c0 -11 5 -21 11 -21 16 -1 17 17 2 30 -12 9 -14 7 -13 -9z"/>
<path d="M4546 1527 c3 -10 9 -15 12 -12 3 3 0 11 -7 18 -10 9 -11 8 -5 -6z"/>
<path d="M4405 1389 c-4 -6 -4 -13 -1 -16 3 -4 6 -1 6 6 0 7 5 9 12 5 7 -4 8
-3 4 4 -9 15 -13 15 -21 1z"/>
<path d="M4210 1195 c0 -7 30 -13 34 -7 3 4 -4 9 -15 9 -10 1 -19 0 -19 -2z"/>
<path d="M3850 836 c0 -2 7 -7 16 -10 8 -3 12 -2 9 4 -6 10 -25 14 -25 6z"/>
</g>
</svg>
